<svg width="706" height="360" viewBox="0 0 706 360" fill="none" xmlns="http://www.w3.org/2000/svg">
<rect width="706" height="360" rx="8" fill="#FDF5F4"/>
<g filter="url(#filter0_d_1723_7173)">
<rect x="49" y="45" width="290" height="232" rx="12" fill="white"/>
<rect x="48.5" y="44.5" width="291" height="233" rx="12.5" stroke="#E4E7EC"/>
<path d="M65.6761 67.9119V66.8182H73.3125V67.9119H70.1108V77H68.8778V67.9119H65.6761ZM76.8511 77.1591C76.1617 77.1591 75.5569 76.995 75.0365 76.6669C74.5195 76.3388 74.1151 75.8797 73.8234 75.2898C73.5351 74.6998 73.3909 74.0104 73.3909 73.2216C73.3909 72.4261 73.5351 71.7318 73.8234 71.1385C74.1151 70.5452 74.5195 70.0845 75.0365 69.7564C75.5569 69.4283 76.1617 69.2642 76.8511 69.2642C77.5405 69.2642 78.1438 69.4283 78.6608 69.7564C79.1812 70.0845 79.5855 70.5452 79.8739 71.1385C80.1655 71.7318 80.3114 72.4261 80.3114 73.2216C80.3114 74.0104 80.1655 74.6998 79.8739 75.2898C79.5855 75.8797 79.1812 76.3388 78.6608 76.6669C78.1438 76.995 77.5405 77.1591 76.8511 77.1591ZM76.8511 76.1051C77.3748 76.1051 77.8057 75.9709 78.1438 75.7024C78.4818 75.4339 78.7321 75.081 78.8945 74.6435C79.0569 74.206 79.1381 73.732 79.1381 73.2216C79.1381 72.7112 79.0569 72.2356 78.8945 71.7947C78.7321 71.3539 78.4818 70.9976 78.1438 70.7259C77.8057 70.4541 77.3748 70.3182 76.8511 70.3182C76.3275 70.3182 75.8966 70.4541 75.5585 70.7259C75.2205 70.9976 74.9702 71.3539 74.8078 71.7947C74.6454 72.2356 74.5642 72.7112 74.5642 73.2216C74.5642 73.732 74.6454 74.206 74.8078 74.6435C74.9702 75.081 75.2205 75.4339 75.5585 75.7024C75.8966 75.9709 76.3275 76.1051 76.8511 76.1051ZM85.2234 69.3636V70.358H81.266V69.3636H85.2234ZM82.4194 67.5341H83.5927V74.8125C83.5927 75.1439 83.6408 75.3925 83.7369 75.5582C83.8363 75.7206 83.9623 75.83 84.1147 75.8864C84.2705 75.9394 84.4346 75.9659 84.6069 75.9659C84.7362 75.9659 84.8422 75.9593 84.9251 75.946C85.008 75.9295 85.0743 75.9162 85.124 75.9062L85.3626 76.9602C85.2831 76.9901 85.172 77.0199 85.0295 77.0497C84.887 77.0829 84.7064 77.0994 84.4876 77.0994C84.1562 77.0994 83.8314 77.0282 83.5132 76.8857C83.1983 76.7431 82.9365 76.526 82.7277 76.2344C82.5222 75.9427 82.4194 75.5748 82.4194 75.1307V67.5341ZM89.0355 77.179C88.5516 77.179 88.1124 77.0878 87.718 76.9055C87.3236 76.7199 87.0104 76.4531 86.7784 76.1051C86.5464 75.7538 86.4304 75.3295 86.4304 74.8324C86.4304 74.3949 86.5165 74.0402 86.6889 73.7685C86.8612 73.4934 87.0916 73.2779 87.3799 73.1222C87.6683 72.9664 87.9865 72.8504 88.3345 72.7741C88.6858 72.6946 89.0388 72.6316 89.3934 72.5852C89.8574 72.5256 90.2336 72.4808 90.522 72.451C90.8136 72.4179 91.0258 72.3632 91.1583 72.2869C91.2942 72.2107 91.3622 72.0781 91.3622 71.8892V71.8494C91.3622 71.3589 91.2279 70.9777 90.9595 70.706C90.6943 70.4342 90.2916 70.2983 89.7514 70.2983C89.1913 70.2983 88.7521 70.4209 88.4339 70.6662C88.1157 70.9115 87.892 71.1733 87.7627 71.4517L86.6491 71.054C86.848 70.59 87.1131 70.2287 87.4446 69.9702C87.7793 69.7083 88.1439 69.526 88.5383 69.4233C88.936 69.3172 89.3271 69.2642 89.7116 69.2642C89.9569 69.2642 90.2386 69.294 90.5568 69.3537C90.8783 69.41 91.1882 69.5277 91.4865 69.7067C91.7881 69.8857 92.0383 70.1558 92.2372 70.517C92.436 70.8783 92.5355 71.3622 92.5355 71.9688V77H91.3622V75.9659H91.3025C91.223 76.1316 91.0904 76.3089 90.9048 76.4979C90.7192 76.6868 90.4723 76.8475 90.164 76.9801C89.8558 77.1127 89.4796 77.179 89.0355 77.179ZM89.2145 76.125C89.6785 76.125 90.0696 76.0339 90.3877 75.8516C90.7092 75.6693 90.9512 75.4339 91.1136 75.1456C91.2793 74.8572 91.3622 74.554 91.3622 74.2358V73.1619C91.3125 73.2216 91.2031 73.2763 91.0341 73.326C90.8683 73.3724 90.6761 73.4138 90.4574 73.4503C90.2419 73.4834 90.0315 73.5133 89.826 73.5398C89.6238 73.563 89.4597 73.5829 89.3338 73.5994C89.0288 73.6392 88.7438 73.7038 88.4787 73.7933C88.2168 73.8795 88.0047 74.0104 87.8423 74.1861C87.6832 74.3584 87.6037 74.5937 87.6037 74.892C87.6037 75.2997 87.7545 75.608 88.0561 75.8168C88.361 76.0223 88.7471 76.125 89.2145 76.125ZM95.6503 66.8182V77H94.477V66.8182H95.6503ZM103.584 77.179C103.1 77.179 102.661 77.0878 102.266 76.9055C101.872 76.7199 101.559 76.4531 101.327 76.1051C101.095 75.7538 100.979 75.3295 100.979 74.8324C100.979 74.3949 101.065 74.0402 101.237 73.7685C101.41 73.4934 101.64 73.2779 101.928 73.1222C102.217 72.9664 102.535 72.8504 102.883 72.7741C103.234 72.6946 103.587 72.6316 103.942 72.5852C104.406 72.5256 104.782 72.4808 105.07 72.451C105.362 72.4179 105.574 72.3632 105.707 72.2869C105.843 72.2107 105.911 72.0781 105.911 71.8892V71.8494C105.911 71.3589 105.776 70.9777 105.508 70.706C105.243 70.4342 104.84 70.2983 104.3 70.2983C103.74 70.2983 103.301 70.4209 102.982 70.6662C102.664 70.9115 102.44 71.1733 102.311 71.4517L101.198 71.054C101.396 70.59 101.662 70.2287 101.993 69.9702C102.328 69.7083 102.692 69.526 103.087 69.4233C103.484 69.3172 103.876 69.2642 104.26 69.2642C104.505 69.2642 104.787 69.294 105.105 69.3537C105.427 69.41 105.737 69.5277 106.035 69.7067C106.337 69.8857 106.587 70.1558 106.786 70.517C106.984 70.8783 107.084 71.3622 107.084 71.9688V77H105.911V75.9659H105.851C105.771 76.1316 105.639 76.3089 105.453 76.4979C105.268 76.6868 105.021 76.8475 104.712 76.9801C104.404 77.1127 104.028 77.179 103.584 77.179ZM103.763 76.125C104.227 76.125 104.618 76.0339 104.936 75.8516C105.258 75.6693 105.5 75.4339 105.662 75.1456C105.828 74.8572 105.911 74.554 105.911 74.2358V73.1619C105.861 73.2216 105.752 73.2763 105.582 73.326C105.417 73.3724 105.225 73.4138 105.006 73.4503C104.79 73.4834 104.58 73.5133 104.374 73.5398C104.172 73.563 104.008 73.5829 103.882 73.5994C103.577 73.6392 103.292 73.7038 103.027 73.7933C102.765 73.8795 102.553 74.0104 102.391 74.1861C102.232 74.3584 102.152 74.5937 102.152 74.892C102.152 75.2997 102.303 75.608 102.605 75.8168C102.909 76.0223 103.296 76.125 103.763 76.125ZM109.025 77V69.3636H110.159V70.5568H110.258C110.417 70.1491 110.674 69.8326 111.029 69.6072C111.384 69.3786 111.81 69.2642 112.307 69.2642C112.81 69.2642 113.23 69.3786 113.564 69.6072C113.903 69.8326 114.166 70.1491 114.355 70.5568H114.435C114.63 70.1624 114.923 69.8492 115.314 69.6172C115.706 69.3819 116.175 69.2642 116.721 69.2642C117.404 69.2642 117.963 69.478 118.397 69.9055C118.831 70.3298 119.048 70.991 119.048 71.8892V77H117.875V71.8892C117.875 71.3258 117.721 70.9231 117.412 70.6811C117.104 70.4392 116.741 70.3182 116.324 70.3182C115.787 70.3182 115.371 70.4806 115.076 70.8054C114.781 71.1269 114.633 71.5346 114.633 72.0284V77H113.44V71.7699C113.44 71.3357 113.299 70.986 113.018 70.7209C112.736 70.4524 112.373 70.3182 111.929 70.3182C111.624 70.3182 111.339 70.3994 111.074 70.5618C110.812 70.7242 110.6 70.9496 110.437 71.2379C110.278 71.523 110.199 71.8527 110.199 72.2273V77H109.025ZM124.096 77.1591C123.406 77.1591 122.801 76.995 122.281 76.6669C121.764 76.3388 121.36 75.8797 121.068 75.2898C120.78 74.6998 120.635 74.0104 120.635 73.2216C120.635 72.4261 120.78 71.7318 121.068 71.1385C121.36 70.5452 121.764 70.0845 122.281 69.7564C122.801 69.4283 123.406 69.2642 124.096 69.2642C124.785 69.2642 125.388 69.4283 125.905 69.7564C126.426 70.0845 126.83 70.5452 127.118 71.1385C127.41 71.7318 127.556 72.4261 127.556 73.2216C127.556 74.0104 127.41 74.6998 127.118 75.2898C126.83 75.8797 126.426 76.3388 125.905 76.6669C125.388 76.995 124.785 77.1591 124.096 77.1591ZM124.096 76.1051C124.619 76.1051 125.05 75.9709 125.388 75.7024C125.726 75.4339 125.977 75.081 126.139 74.6435C126.301 74.206 126.383 73.732 126.383 73.2216C126.383 72.7112 126.301 72.2356 126.139 71.7947C125.977 71.3539 125.726 70.9976 125.388 70.7259C125.05 70.4541 124.619 70.3182 124.096 70.3182C123.572 70.3182 123.141 70.4541 122.803 70.7259C122.465 70.9976 122.215 71.3539 122.052 71.7947C121.89 72.2356 121.809 72.7112 121.809 73.2216C121.809 73.732 121.89 74.206 122.052 74.6435C122.215 75.081 122.465 75.4339 122.803 75.7024C123.141 75.9709 123.572 76.1051 124.096 76.1051ZM133.959 73.8778V69.3636H135.133V77H133.959V75.7074H133.88C133.701 76.0952 133.422 76.425 133.045 76.6967C132.667 76.9652 132.19 77.0994 131.613 77.0994C131.136 77.0994 130.711 76.995 130.34 76.7862C129.969 76.5741 129.677 76.2559 129.465 75.8317C129.253 75.4041 129.147 74.8655 129.147 74.2159V69.3636H130.32V74.1364C130.32 74.6932 130.476 75.1373 130.788 75.4688C131.102 75.8002 131.503 75.9659 131.991 75.9659C132.282 75.9659 132.579 75.8913 132.881 75.7422C133.186 75.593 133.441 75.3643 133.646 75.0561C133.855 74.7479 133.959 74.3551 133.959 73.8778ZM138.255 72.4062V77H137.082V69.3636H138.215V70.5568H138.315C138.494 70.169 138.765 69.8575 139.13 69.6222C139.495 69.3835 139.965 69.2642 140.542 69.2642C141.059 69.2642 141.511 69.3703 141.899 69.5824C142.287 69.7912 142.589 70.1094 142.804 70.5369C143.019 70.9612 143.127 71.4981 143.127 72.1477V77H141.954V72.2273C141.954 71.6274 141.798 71.16 141.487 70.8253C141.175 70.4872 140.747 70.3182 140.204 70.3182C139.829 70.3182 139.495 70.3994 139.2 70.5618C138.908 70.7242 138.678 70.9612 138.509 71.2727C138.339 71.5843 138.255 71.9621 138.255 72.4062ZM148.392 69.3636V70.358H144.435V69.3636H148.392ZM145.588 67.5341H146.761V74.8125C146.761 75.1439 146.81 75.3925 146.906 75.5582C147.005 75.7206 147.131 75.83 147.283 75.8864C147.439 75.9394 147.603 75.9659 147.776 75.9659C147.905 75.9659 148.011 75.9593 148.094 75.946C148.177 75.9295 148.243 75.9162 148.293 75.9062L148.531 76.9602C148.452 76.9901 148.341 77.0199 148.198 77.0497C148.056 77.0829 147.875 77.0994 147.656 77.0994C147.325 77.0994 147 77.0282 146.682 76.8857C146.367 76.7431 146.105 76.526 145.896 76.2344C145.691 75.9427 145.588 75.5748 145.588 75.1307V67.5341Z" fill="#344054"/>
<path d="M160 66.625C159.036 66.625 158.093 66.9109 157.292 67.4466C156.49 67.9823 155.865 68.7436 155.496 69.6344C155.127 70.5252 155.031 71.5054 155.219 72.4511C155.407 73.3967 155.871 74.2654 156.553 74.9471C157.235 75.6289 158.103 76.0932 159.049 76.2813C159.995 76.4694 160.975 76.3729 161.866 76.0039C162.756 75.6349 163.518 75.0101 164.053 74.2084C164.589 73.4067 164.875 72.4642 164.875 71.5C164.874 70.2075 164.36 68.9683 163.446 68.0544C162.532 67.1404 161.293 66.6264 160 66.625ZM159.813 68.875C159.924 68.875 160.033 68.908 160.125 68.9698C160.218 69.0316 160.29 69.1195 160.332 69.2222C160.375 69.325 160.386 69.4381 160.364 69.5472C160.342 69.6564 160.289 69.7566 160.21 69.8352C160.132 69.9139 160.031 69.9675 159.922 69.9892C159.813 70.0109 159.7 69.9998 159.597 69.9572C159.494 69.9146 159.407 69.8425 159.345 69.75C159.283 69.6575 159.25 69.5488 159.25 69.4375C159.25 69.2883 159.309 69.1452 159.415 69.0398C159.52 68.9343 159.663 68.875 159.813 68.875ZM160.375 74.125C160.176 74.125 159.985 74.046 159.845 73.9053C159.704 73.7647 159.625 73.5739 159.625 73.375V71.5C159.526 71.5 159.43 71.4605 159.36 71.3902C159.29 71.3198 159.25 71.2245 159.25 71.125C159.25 71.0255 159.29 70.9302 159.36 70.8598C159.43 70.7895 159.526 70.75 159.625 70.75C159.824 70.75 160.015 70.829 160.155 70.9697C160.296 71.1103 160.375 71.3011 160.375 71.5V73.375C160.474 73.375 160.57 73.4145 160.64 73.4848C160.71 73.5552 160.75 73.6505 160.75 73.75C160.75 73.8495 160.71 73.9448 160.64 74.0152C160.57 74.0855 160.474 74.125 160.375 74.125Z" fill="#98A2B3"/>
<path d="M82.821 101.92V103.625H65.4347V101.92H82.821ZM82.821 105.602V107.307H65.4347V105.602H82.821ZM81.3125 95.5455V113H78.5L70.267 101.111H70.1307V113H66.9602V95.5455H69.7983L78.0057 107.443H78.1676V95.5455H81.3125ZM90.4013 113L97.8246 98.3068V98.1875H89.2081V95.5455H101.097V98.2472L93.6825 113H90.4013ZM104.004 110.614L103.893 111.551C103.814 112.267 103.672 112.994 103.467 113.733C103.268 114.477 103.058 115.162 102.837 115.787C102.615 116.412 102.436 116.903 102.3 117.261H100.22C100.3 116.915 100.408 116.443 100.544 115.847C100.686 115.25 100.822 114.58 100.953 113.835C101.084 113.091 101.172 112.335 101.217 111.568L101.277 110.614H104.004ZM112.783 113.239C111.647 113.239 110.63 113.026 109.732 112.599C108.835 112.168 108.121 111.577 107.593 110.827C107.07 110.077 106.792 109.219 106.758 108.253H109.826C109.883 108.969 110.192 109.554 110.755 110.009C111.317 110.457 111.994 110.682 112.783 110.682C113.403 110.682 113.954 110.54 114.437 110.256C114.92 109.972 115.3 109.577 115.579 109.071C115.857 108.565 115.994 107.989 115.988 107.341C115.994 106.682 115.854 106.097 115.57 105.585C115.286 105.074 114.897 104.673 114.403 104.384C113.908 104.088 113.34 103.94 112.698 103.94C112.175 103.935 111.661 104.031 111.156 104.23C110.65 104.429 110.249 104.69 109.954 105.014L107.099 104.545L108.011 95.5455H118.136V98.1875H110.627L110.124 102.815H110.227C110.55 102.435 111.008 102.119 111.599 101.869C112.19 101.614 112.837 101.486 113.542 101.486C114.599 101.486 115.542 101.736 116.371 102.236C117.201 102.73 117.854 103.412 118.332 104.281C118.809 105.151 119.048 106.145 119.048 107.264C119.048 108.418 118.781 109.446 118.246 110.349C117.718 111.247 116.982 111.955 116.039 112.472C115.102 112.983 114.016 113.239 112.783 113.239ZM121.403 113V110.716L127.462 104.776C128.042 104.19 128.525 103.67 128.911 103.216C129.298 102.761 129.587 102.321 129.781 101.895C129.974 101.469 130.07 101.014 130.07 100.531C130.07 99.9801 129.945 99.5085 129.695 99.1165C129.445 98.7188 129.102 98.4119 128.664 98.196C128.227 97.9801 127.729 97.8722 127.173 97.8722C126.599 97.8722 126.096 97.9915 125.664 98.2301C125.232 98.4631 124.897 98.7955 124.658 99.2273C124.425 99.6591 124.309 100.173 124.309 100.77H121.3C121.3 99.6619 121.553 98.6989 122.059 97.8807C122.565 97.0625 123.261 96.429 124.147 95.9801C125.039 95.5312 126.062 95.3068 127.215 95.3068C128.386 95.3068 129.414 95.5256 130.3 95.9631C131.187 96.4006 131.874 97 132.363 97.7614C132.857 98.5227 133.104 99.392 133.104 100.369C133.104 101.023 132.979 101.665 132.729 102.295C132.479 102.926 132.039 103.625 131.408 104.392C130.783 105.159 129.906 106.088 128.775 107.179L125.766 110.239V110.358H133.369V113H121.403ZM141.877 113.239C140.741 113.239 139.724 113.026 138.826 112.599C137.928 112.168 137.215 111.577 136.687 110.827C136.164 110.077 135.886 109.219 135.852 108.253H138.92C138.977 108.969 139.286 109.554 139.849 110.009C140.411 110.457 141.087 110.682 141.877 110.682C142.496 110.682 143.048 110.54 143.531 110.256C144.013 109.972 144.394 109.577 144.673 109.071C144.951 108.565 145.087 107.989 145.082 107.341C145.087 106.682 144.948 106.097 144.664 105.585C144.38 105.074 143.991 104.673 143.496 104.384C143.002 104.088 142.434 103.94 141.792 103.94C141.269 103.935 140.755 104.031 140.249 104.23C139.744 104.429 139.343 104.69 139.048 105.014L136.192 104.545L137.104 95.5455H147.229V98.1875H139.721L139.218 102.815H139.32C139.644 102.435 140.102 102.119 140.692 101.869C141.283 101.614 141.931 101.486 142.636 101.486C143.692 101.486 144.636 101.736 145.465 102.236C146.295 102.73 146.948 103.412 147.425 104.281C147.903 105.151 148.141 106.145 148.141 107.264C148.141 108.418 147.874 109.446 147.34 110.349C146.812 111.247 146.076 111.955 145.133 112.472C144.195 112.983 143.11 113.239 141.877 113.239ZM153.567 110.614L153.456 111.551C153.376 112.267 153.234 112.994 153.03 113.733C152.831 114.477 152.621 115.162 152.399 115.787C152.178 116.412 151.999 116.903 151.862 117.261H149.783C149.862 116.915 149.97 116.443 150.107 115.847C150.249 115.25 150.385 114.58 150.516 113.835C150.646 113.091 150.734 112.335 150.78 111.568L150.839 110.614H153.567ZM156.489 113V110.716L162.548 104.776C163.128 104.19 163.611 103.67 163.997 103.216C164.384 102.761 164.673 102.321 164.866 101.895C165.06 101.469 165.156 101.014 165.156 100.531C165.156 99.9801 165.031 99.5085 164.781 99.1165C164.531 98.7188 164.188 98.4119 163.75 98.196C163.312 97.9801 162.815 97.8722 162.259 97.8722C161.685 97.8722 161.182 97.9915 160.75 98.2301C160.318 98.4631 159.983 98.7955 159.744 99.2273C159.511 99.6591 159.395 100.173 159.395 100.77H156.386C156.386 99.6619 156.639 98.6989 157.145 97.8807C157.651 97.0625 158.347 96.429 159.233 95.9801C160.125 95.5312 161.148 95.3068 162.301 95.3068C163.472 95.3068 164.5 95.5256 165.386 95.9631C166.273 96.4006 166.96 97 167.449 97.7614C167.943 98.5227 168.19 99.392 168.19 100.369C168.19 101.023 168.065 101.665 167.815 102.295C167.565 102.926 167.125 103.625 166.494 104.392C165.869 105.159 164.991 106.088 163.861 107.179L160.852 110.239V110.358H168.455V113H156.489ZM171.534 113L178.957 98.3068V98.1875H170.341V95.5455H182.23V98.2472L174.815 113H171.534ZM190.558 113.332C189.154 113.332 187.95 112.977 186.944 112.267C185.944 111.551 185.174 110.52 184.634 109.173C184.1 107.821 183.833 106.193 183.833 104.29C183.839 102.386 184.109 100.767 184.643 99.4318C185.183 98.0909 185.952 97.0682 186.952 96.3636C187.958 95.6591 189.16 95.3068 190.558 95.3068C191.955 95.3068 193.157 95.6591 194.163 96.3636C195.168 97.0682 195.938 98.0909 196.472 99.4318C197.012 100.773 197.282 102.392 197.282 104.29C197.282 106.199 197.012 107.83 196.472 109.182C195.938 110.528 195.168 111.557 194.163 112.267C193.163 112.977 191.961 113.332 190.558 113.332ZM190.558 110.665C191.648 110.665 192.509 110.128 193.14 109.054C193.776 107.974 194.094 106.386 194.094 104.29C194.094 102.903 193.95 101.739 193.66 100.795C193.37 99.8523 192.961 99.142 192.433 98.6648C191.904 98.1818 191.279 97.9403 190.558 97.9403C189.472 97.9403 188.614 98.4801 187.984 99.5597C187.353 100.634 187.035 102.21 187.029 104.29C187.023 105.682 187.163 106.852 187.447 107.801C187.737 108.75 188.146 109.466 188.674 109.949C189.202 110.426 189.83 110.665 190.558 110.665Z" fill="#101928"/>
<rect x="203" y="95" width="46" height="18" rx="9" fill="#E7F6EC"/>
<path d="M218.562 101V105.875C218.562 106.024 218.503 106.167 218.398 106.273C218.292 106.378 218.149 106.438 218 106.438C217.851 106.438 217.708 106.378 217.602 106.273C217.497 106.167 217.437 106.024 217.437 105.875V102.359L212.398 107.398C212.292 107.504 212.149 107.563 212 107.563C211.85 107.563 211.707 107.504 211.601 107.398C211.495 107.292 211.436 107.149 211.436 107C211.436 106.85 211.495 106.707 211.601 106.601L216.641 101.562H213.125C212.976 101.562 212.833 101.503 212.727 101.398C212.622 101.292 212.562 101.149 212.562 101C212.562 100.851 212.622 100.708 212.727 100.602C212.833 100.497 212.976 100.438 213.125 100.438H218C218.149 100.438 218.292 100.497 218.398 100.602C218.503 100.708 218.562 100.851 218.562 101Z" fill="#036B26"/>
<path d="M226.459 100.227V107.5H225.358V101.328H225.315L223.575 102.464V101.413L225.39 100.227H226.459ZM228.426 107.5V106.705L230.887 104.155C231.15 103.878 231.366 103.635 231.537 103.427C231.71 103.216 231.839 103.016 231.924 102.827C232.009 102.637 232.052 102.436 232.052 102.223C232.052 101.982 231.995 101.773 231.881 101.598C231.768 101.42 231.613 101.284 231.416 101.19C231.22 101.093 230.998 101.044 230.752 101.044C230.492 101.044 230.264 101.097 230.07 101.204C229.876 101.31 229.727 101.461 229.623 101.655C229.519 101.849 229.467 102.076 229.467 102.337H228.419C228.419 101.894 228.521 101.507 228.724 101.175C228.928 100.844 229.207 100.587 229.562 100.405C229.918 100.22 230.321 100.128 230.773 100.128C231.23 100.128 231.633 100.219 231.981 100.401C232.331 100.581 232.605 100.827 232.801 101.14C232.998 101.45 233.096 101.8 233.096 102.191C233.096 102.461 233.045 102.725 232.943 102.983C232.844 103.241 232.67 103.529 232.421 103.846C232.173 104.161 231.827 104.543 231.384 104.993L229.939 106.506V106.559H233.213V107.5H228.426ZM238.355 106.136V105.753C238.355 105.478 238.412 105.227 238.526 105C238.642 104.77 238.81 104.587 239.03 104.45C239.252 104.31 239.521 104.24 239.836 104.24C240.158 104.24 240.428 104.309 240.646 104.446C240.863 104.583 241.028 104.767 241.139 104.996C241.253 105.226 241.31 105.478 241.31 105.753V106.136C241.31 106.411 241.253 106.663 241.139 106.893C241.026 107.12 240.859 107.304 240.638 107.443C240.421 107.58 240.153 107.649 239.836 107.649C239.516 107.649 239.246 107.58 239.026 107.443C238.806 107.304 238.639 107.12 238.526 106.893C238.412 106.663 238.355 106.411 238.355 106.136ZM239.183 105.753V106.136C239.183 106.34 239.231 106.525 239.328 106.69C239.425 106.856 239.594 106.939 239.836 106.939C240.075 106.939 240.242 106.856 240.337 106.69C240.431 106.525 240.479 106.34 240.479 106.136V105.753C240.479 105.549 240.433 105.365 240.34 105.199C240.25 105.033 240.082 104.95 239.836 104.95C239.599 104.95 239.431 105.033 239.332 105.199C239.232 105.365 239.183 105.549 239.183 105.753ZM234.697 101.974V101.591C234.697 101.316 234.754 101.064 234.868 100.835C234.984 100.605 235.152 100.421 235.372 100.284C235.595 100.147 235.863 100.078 236.178 100.078C236.5 100.078 236.77 100.147 236.988 100.284C237.206 100.421 237.37 100.605 237.482 100.835C237.593 101.064 237.648 101.316 237.648 101.591V101.974C237.648 102.249 237.592 102.501 237.478 102.731C237.367 102.958 237.201 103.142 236.981 103.281C236.763 103.419 236.496 103.487 236.178 103.487C235.856 103.487 235.585 103.419 235.365 103.281C235.147 103.142 234.982 102.958 234.868 102.731C234.754 102.501 234.697 102.249 234.697 101.974ZM235.528 101.591V101.974C235.528 102.178 235.576 102.363 235.67 102.528C235.768 102.694 235.937 102.777 236.178 102.777C236.415 102.777 236.581 102.694 236.675 102.528C236.772 102.363 236.821 102.178 236.821 101.974V101.591C236.821 101.387 236.775 101.203 236.683 101.037C236.59 100.871 236.422 100.788 236.178 100.788C235.942 100.788 235.773 100.871 235.674 101.037C235.577 101.203 235.528 101.387 235.528 101.591ZM235.035 107.5L240.035 100.227H240.884L235.884 107.5H235.035Z" fill="#036B26"/>
<path d="M67.767 142.182V148H66.8864V143.062H66.8523L65.4602 143.972V143.131L66.9119 142.182H67.767ZM71.2614 148.08C70.9053 148.08 70.5852 148.011 70.3011 147.875C70.0189 147.737 69.7936 147.547 69.625 147.307C69.4564 147.066 69.3665 146.792 69.3551 146.483H70.2074C70.2282 146.733 70.339 146.938 70.5398 147.099C70.7405 147.26 70.9811 147.341 71.2614 147.341C71.4848 147.341 71.6828 147.29 71.8551 147.188C72.0294 147.083 72.1657 146.94 72.2642 146.759C72.3646 146.577 72.4148 146.369 72.4148 146.136C72.4148 145.9 72.3636 145.688 72.2614 145.503C72.1591 145.317 72.018 145.171 71.8381 145.065C71.66 144.959 71.4555 144.905 71.2244 144.903C71.0483 144.903 70.8712 144.934 70.6932 144.994C70.5152 145.055 70.3712 145.134 70.2614 145.233L69.4574 145.114L69.7841 142.182H72.983V142.935H70.5142L70.3295 144.562H70.3636C70.4773 144.453 70.6278 144.361 70.8153 144.287C71.0047 144.213 71.2074 144.176 71.4233 144.176C71.7775 144.176 72.0928 144.26 72.3693 144.429C72.6477 144.598 72.8665 144.828 73.0256 145.119C73.1866 145.409 73.2661 145.742 73.2642 146.119C73.2661 146.496 73.1809 146.832 73.0085 147.128C72.8381 147.423 72.6013 147.656 72.2983 147.827C71.9972 147.995 71.6515 148.08 71.2614 148.08ZM74.3814 142.182H75.4467L77.299 146.705H77.3672L79.2195 142.182H80.2848V148H79.4496V143.79H79.3956L77.6797 147.991H76.9865L75.2706 143.787H75.2166V148H74.3814V142.182Z" fill="#98A2B3"/>
<path d="M67.767 172.182V178H66.8864V173.062H66.8523L65.4602 173.972V173.131L66.9119 172.182H67.767ZM71.3665 178.097C70.9176 178.095 70.5341 177.976 70.2159 177.741C69.8977 177.507 69.6544 177.165 69.4858 176.716C69.3172 176.267 69.233 175.726 69.233 175.094C69.233 174.463 69.3172 173.924 69.4858 173.477C69.6563 173.03 69.9006 172.689 70.2188 172.455C70.5388 172.22 70.9214 172.102 71.3665 172.102C71.8116 172.102 72.1932 172.221 72.5114 172.457C72.8295 172.692 73.0729 173.033 73.2415 173.48C73.4119 173.925 73.4972 174.463 73.4972 175.094C73.4972 175.728 73.4129 176.27 73.2443 176.719C73.0758 177.166 72.8324 177.508 72.5142 177.744C72.196 177.979 71.8134 178.097 71.3665 178.097ZM71.3665 177.338C71.7604 177.338 72.0682 177.146 72.2898 176.761C72.5133 176.377 72.625 175.821 72.625 175.094C72.625 174.611 72.5739 174.203 72.4716 173.869C72.3712 173.534 72.2263 173.28 72.0369 173.108C71.8494 172.934 71.6259 172.847 71.3665 172.847C70.9744 172.847 70.6667 173.04 70.4432 173.426C70.2197 173.812 70.107 174.368 70.1051 175.094C70.1051 175.579 70.1553 175.989 70.2557 176.324C70.358 176.657 70.5028 176.91 70.6903 177.082C70.8778 177.253 71.1032 177.338 71.3665 177.338ZM74.5845 172.182H75.6499L77.5021 176.705H77.5703L79.4226 172.182H80.4879V178H79.6527V173.79H79.5987L77.8828 177.991H77.1896L75.4737 173.787H75.4197V178H74.5845V172.182Z" fill="#98A2B3"/>
<path d="M67.4801 208.08C67.1241 208.08 66.804 208.011 66.5199 207.875C66.2377 207.737 66.0123 207.547 65.8438 207.307C65.6752 207.066 65.5852 206.792 65.5739 206.483H66.4261C66.447 206.733 66.5578 206.938 66.7585 207.099C66.9593 207.26 67.1998 207.341 67.4801 207.341C67.7036 207.341 67.9015 207.29 68.0739 207.188C68.2481 207.083 68.3845 206.94 68.483 206.759C68.5833 206.577 68.6335 206.369 68.6335 206.136C68.6335 205.9 68.5824 205.688 68.4801 205.503C68.3778 205.317 68.2367 205.171 68.0568 205.065C67.8788 204.959 67.6742 204.905 67.4432 204.903C67.267 204.903 67.09 204.934 66.9119 204.994C66.7339 205.055 66.59 205.134 66.4801 205.233L65.6761 205.114L66.0028 202.182H69.2017V202.935H66.733L66.5483 204.562H66.5824C66.696 204.453 66.8466 204.361 67.0341 204.287C67.2235 204.213 67.4261 204.176 67.642 204.176C67.9962 204.176 68.3116 204.26 68.5881 204.429C68.8665 204.598 69.0852 204.828 69.2443 205.119C69.4053 205.409 69.4848 205.742 69.483 206.119C69.4848 206.496 69.3996 206.832 69.2273 207.128C69.0568 207.423 68.8201 207.656 68.517 207.827C68.2159 207.995 67.8703 208.08 67.4801 208.08ZM70.6001 202.182H71.6655L73.5178 206.705H73.5859L75.4382 202.182H76.5036V208H75.6683V203.79H75.6143L73.8984 207.991H73.2053L71.4893 203.787H71.4354V208H70.6001V202.182Z" fill="#98A2B3"/>
<path d="M67.5852 238.097C67.1364 238.095 66.7528 237.976 66.4347 237.741C66.1165 237.507 65.8731 237.165 65.7045 236.716C65.536 236.267 65.4517 235.726 65.4517 235.094C65.4517 234.463 65.536 233.924 65.7045 233.477C65.875 233.03 66.1193 232.689 66.4375 232.455C66.7576 232.22 67.1402 232.102 67.5852 232.102C68.0303 232.102 68.4119 232.221 68.7301 232.457C69.0483 232.692 69.2917 233.033 69.4602 233.48C69.6307 233.925 69.7159 234.463 69.7159 235.094C69.7159 235.728 69.6316 236.27 69.4631 236.719C69.2945 237.166 69.0511 237.508 68.733 237.744C68.4148 237.979 68.0322 238.097 67.5852 238.097ZM67.5852 237.338C67.9792 237.338 68.2869 237.146 68.5085 236.761C68.732 236.377 68.8438 235.821 68.8438 235.094C68.8438 234.611 68.7926 234.203 68.6903 233.869C68.59 233.534 68.4451 233.28 68.2557 233.108C68.0682 232.934 67.8447 232.847 67.5852 232.847C67.1932 232.847 66.8854 233.04 66.6619 233.426C66.4384 233.812 66.3258 234.368 66.3239 235.094C66.3239 235.579 66.3741 235.989 66.4744 236.324C66.5767 236.657 66.7216 236.91 66.9091 237.082C67.0966 237.253 67.322 237.338 67.5852 237.338ZM70.8033 232.182H71.8686L73.7209 236.705H73.7891L75.6413 232.182H76.7067V238H75.8714V233.79H75.8175L74.1016 237.991H73.4084L71.6925 233.787H71.6385V238H70.8033V232.182Z" fill="#98A2B3"/>
<line x1="89" y1="145" x2="323" y2="145" stroke="#F0F2F5"/>
<line x1="89" y1="175" x2="323" y2="175" stroke="#F0F2F5"/>
<line x1="89" y1="205" x2="323" y2="205" stroke="#F0F2F5"/>
<line x1="89" y1="235" x2="323" y2="235" stroke="#F0F2F5"/>
<g clip-path="url(#clip0_1723_7173)">
<path d="M144.142 210.09L96.798 225.816C92.1421 227.363 89 231.717 89 236.623C89 242.912 94.0985 248.011 100.388 248.011H381.157C388.802 248.011 395 241.813 395 234.168V197.567C395 188.827 383.277 184.813 375.862 189.439C374.047 190.571 374.708 190.885 373.796 192.82L367.024 207.185C366.064 209.221 364.623 210.991 362.825 212.344L358.755 215.406C357.607 216.269 356.605 217.31 355.785 218.49C353.259 222.122 349.115 224.288 344.691 224.288H341.514C339.873 224.288 338.246 223.996 336.707 223.426L326.132 219.51L321.531 217.898C319.305 217.119 317.315 215.783 315.75 214.018L314.817 212.966C312.19 210.003 308.42 208.307 304.46 208.307H301.056H296.628C295.108 208.307 293.599 208.057 292.16 207.567L253.266 194.304L231.99 187.533C228.084 186.291 223.829 186.842 220.369 189.04L178.948 215.353C174.883 217.936 169.768 218.22 165.442 216.103L154.59 210.793C151.334 209.2 147.582 208.947 144.142 210.09Z" fill="url(#paint0_linear_1723_7173)"/>
<path d="M89 228.406L144.142 210.09C147.582 208.947 151.334 209.2 154.59 210.793L165.442 216.103C169.768 218.22 174.883 217.936 178.948 215.353L220.369 189.04C223.829 186.842 228.084 186.291 231.99 187.533L253.266 194.304L292.16 207.567C293.599 208.057 295.108 208.307 296.628 208.307H301.056H304.46C308.42 208.307 312.19 210.003 314.817 212.966L315.75 214.018C317.315 215.783 319.305 217.119 321.531 217.898L326.132 219.51L336.707 223.426C338.246 223.996 339.873 224.288 341.514 224.288H344.691C349.115 224.288 353.259 222.122 355.785 218.49V218.49C356.605 217.31 357.607 216.269 358.755 215.406L362.825 212.344C364.623 210.991 366.064 209.221 367.024 207.185L373.456 193.541C374.59 191.135 376.394 189.107 378.651 187.699L395 177.5" stroke="#53C90E"/>
</g>
<path d="M123.901 250.182H124.776V254.307C124.776 254.68 124.702 254.999 124.554 255.264C124.408 255.529 124.203 255.732 123.938 255.872C123.672 256.01 123.362 256.08 123.006 256.08C122.678 256.08 122.384 256.02 122.122 255.901C121.863 255.781 121.657 255.608 121.506 255.381C121.356 255.152 121.281 254.873 121.281 254.545H122.153C122.153 254.706 122.19 254.846 122.264 254.963C122.34 255.08 122.443 255.172 122.574 255.239C122.706 255.303 122.858 255.335 123.028 255.335C123.214 255.335 123.371 255.296 123.5 255.219C123.631 255.139 123.73 255.023 123.798 254.869C123.866 254.716 123.901 254.528 123.901 254.307V250.182ZM127.255 256.097C126.978 256.097 126.728 256.045 126.505 255.943C126.281 255.839 126.104 255.688 125.974 255.491C125.845 255.295 125.781 255.053 125.781 254.767C125.781 254.521 125.828 254.318 125.923 254.159C126.017 254 126.145 253.874 126.306 253.781C126.467 253.688 126.647 253.618 126.846 253.571C127.045 253.524 127.247 253.488 127.454 253.463C127.715 253.433 127.927 253.408 128.09 253.389C128.253 253.368 128.371 253.335 128.445 253.29C128.519 253.244 128.556 253.17 128.556 253.068V253.048C128.556 252.8 128.486 252.608 128.346 252.472C128.208 252.335 128.001 252.267 127.727 252.267C127.441 252.267 127.215 252.33 127.05 252.457C126.888 252.582 126.775 252.722 126.712 252.875L125.914 252.693C126.009 252.428 126.147 252.214 126.329 252.051C126.513 251.886 126.724 251.767 126.962 251.693C127.201 251.617 127.452 251.58 127.715 251.58C127.889 251.58 128.074 251.6 128.269 251.642C128.466 251.682 128.65 251.756 128.82 251.864C128.993 251.972 129.134 252.126 129.244 252.327C129.353 252.526 129.408 252.784 129.408 253.102V256H128.579V255.403H128.545C128.49 255.513 128.407 255.621 128.298 255.727C128.188 255.833 128.047 255.921 127.874 255.991C127.702 256.062 127.496 256.097 127.255 256.097ZM127.44 255.415C127.674 255.415 127.875 255.368 128.042 255.276C128.21 255.183 128.338 255.062 128.425 254.912C128.514 254.76 128.559 254.598 128.559 254.426V253.864C128.529 253.894 128.47 253.922 128.383 253.949C128.298 253.973 128.2 253.995 128.09 254.014C127.98 254.031 127.873 254.047 127.769 254.062C127.665 254.076 127.578 254.087 127.508 254.097C127.343 254.117 127.192 254.152 127.056 254.202C126.922 254.251 126.814 254.322 126.732 254.415C126.653 254.506 126.613 254.627 126.613 254.778C126.613 254.989 126.691 255.148 126.846 255.256C127.001 255.362 127.199 255.415 127.44 255.415ZM131.389 253.409V256H130.54V251.636H131.355V252.347H131.409C131.509 252.116 131.667 251.93 131.881 251.79C132.097 251.65 132.368 251.58 132.696 251.58C132.993 251.58 133.254 251.642 133.477 251.767C133.701 251.89 133.874 252.074 133.997 252.318C134.12 252.562 134.182 252.865 134.182 253.224V256H133.332V253.327C133.332 253.01 133.25 252.763 133.085 252.585C132.92 252.405 132.694 252.315 132.406 252.315C132.209 252.315 132.034 252.358 131.881 252.443C131.729 252.528 131.609 252.653 131.52 252.818C131.433 252.981 131.389 253.178 131.389 253.409Z" fill="#98A2B3"/>
<path d="M198.639 256V250.182H202.247V250.938H199.517V252.71H201.989V253.463H199.517V256H198.639ZM204.819 256.088C204.389 256.088 204.019 255.996 203.708 255.812C203.399 255.627 203.161 255.366 202.992 255.031C202.826 254.694 202.742 254.299 202.742 253.847C202.742 253.4 202.826 253.006 202.992 252.665C203.161 252.324 203.396 252.058 203.697 251.866C204 251.675 204.354 251.58 204.759 251.58C205.005 251.58 205.244 251.62 205.475 251.702C205.706 251.783 205.914 251.911 206.097 252.085C206.281 252.259 206.426 252.486 206.532 252.764C206.638 253.041 206.691 253.377 206.691 253.773V254.074H203.222V253.438H205.859C205.859 253.214 205.813 253.016 205.722 252.844C205.631 252.67 205.504 252.532 205.339 252.432C205.176 252.331 204.985 252.281 204.765 252.281C204.526 252.281 204.318 252.34 204.14 252.457C203.964 252.573 203.827 252.724 203.731 252.912C203.636 253.098 203.589 253.299 203.589 253.517V254.014C203.589 254.306 203.64 254.554 203.742 254.759C203.846 254.963 203.991 255.119 204.177 255.227C204.362 255.333 204.579 255.386 204.827 255.386C204.988 255.386 205.135 255.364 205.268 255.318C205.4 255.271 205.515 255.201 205.612 255.108C205.708 255.015 205.782 254.901 205.833 254.764L206.637 254.909C206.573 255.146 206.457 255.353 206.29 255.531C206.126 255.707 205.918 255.845 205.668 255.943C205.42 256.04 205.137 256.088 204.819 256.088ZM207.702 256V250.182H208.551V252.344H208.602C208.652 252.253 208.723 252.148 208.815 252.028C208.908 251.909 209.037 251.805 209.202 251.716C209.366 251.625 209.584 251.58 209.855 251.58C210.207 251.58 210.522 251.669 210.798 251.847C211.075 252.025 211.292 252.281 211.449 252.616C211.608 252.952 211.688 253.355 211.688 253.827C211.688 254.298 211.609 254.703 211.452 255.04C211.295 255.375 211.079 255.634 210.804 255.815C210.529 255.995 210.216 256.085 209.864 256.085C209.598 256.085 209.382 256.041 209.213 255.952C209.046 255.863 208.916 255.759 208.821 255.639C208.726 255.52 208.653 255.414 208.602 255.321H208.531V256H207.702ZM208.534 253.818C208.534 254.125 208.579 254.394 208.668 254.625C208.757 254.856 208.885 255.037 209.054 255.168C209.223 255.296 209.429 255.361 209.673 255.361C209.927 255.361 210.139 255.294 210.31 255.159C210.48 255.023 210.609 254.838 210.696 254.605C210.785 254.372 210.83 254.11 210.83 253.818C210.83 253.53 210.786 253.272 210.699 253.043C210.614 252.813 210.485 252.633 210.312 252.5C210.142 252.367 209.929 252.301 209.673 252.301C209.427 252.301 209.219 252.365 209.048 252.491C208.88 252.618 208.752 252.795 208.665 253.023C208.578 253.25 208.534 253.515 208.534 253.818Z" fill="#98A2B3"/>
<path d="M276.639 250.182H277.705L279.557 254.705H279.625L281.477 250.182H282.543V256H281.707V251.79H281.653L279.938 255.991H279.244L277.528 251.787H277.474V256H276.639V250.182ZM285.021 256.097C284.744 256.097 284.494 256.045 284.271 255.943C284.047 255.839 283.87 255.688 283.739 255.491C283.611 255.295 283.546 255.053 283.546 254.767C283.546 254.521 283.594 254.318 283.688 254.159C283.783 254 283.911 253.874 284.072 253.781C284.233 253.688 284.413 253.618 284.612 253.571C284.81 253.524 285.013 253.488 285.219 253.463C285.481 253.433 285.693 253.408 285.856 253.389C286.019 253.368 286.137 253.335 286.211 253.29C286.285 253.244 286.322 253.17 286.322 253.068V253.048C286.322 252.8 286.252 252.608 286.112 252.472C285.973 252.335 285.767 252.267 285.492 252.267C285.206 252.267 284.981 252.33 284.816 252.457C284.653 252.582 284.54 252.722 284.478 252.875L283.68 252.693C283.774 252.428 283.913 252.214 284.094 252.051C284.278 251.886 284.489 251.767 284.728 251.693C284.967 251.617 285.218 251.58 285.481 251.58C285.655 251.58 285.84 251.6 286.035 251.642C286.232 251.682 286.415 251.756 286.586 251.864C286.758 251.972 286.899 252.126 287.009 252.327C287.119 252.526 287.174 252.784 287.174 253.102V256H286.344V255.403H286.31C286.255 255.513 286.173 255.621 286.063 255.727C285.953 255.833 285.812 255.921 285.64 255.991C285.468 256.062 285.261 256.097 285.021 256.097ZM285.205 255.415C285.44 255.415 285.641 255.368 285.808 255.276C285.976 255.183 286.104 255.062 286.191 254.912C286.28 254.76 286.325 254.598 286.325 254.426V253.864C286.294 253.894 286.236 253.922 286.148 253.949C286.063 253.973 285.966 253.995 285.856 254.014C285.746 254.031 285.639 254.047 285.535 254.062C285.431 254.076 285.344 254.087 285.273 254.097C285.109 254.117 284.958 254.152 284.822 254.202C284.687 254.251 284.579 254.322 284.498 254.415C284.418 254.506 284.379 254.627 284.379 254.778C284.379 254.989 284.456 255.148 284.612 255.256C284.767 255.362 284.965 255.415 285.205 255.415ZM288.305 256V251.636H289.126V252.33H289.172C289.251 252.095 289.392 251.91 289.592 251.776C289.795 251.639 290.024 251.571 290.28 251.571C290.333 251.571 290.395 251.573 290.467 251.577C290.541 251.58 290.599 251.585 290.641 251.591V252.403C290.607 252.394 290.546 252.384 290.459 252.372C290.372 252.359 290.285 252.352 290.197 252.352C289.997 252.352 289.818 252.395 289.661 252.48C289.505 252.563 289.382 252.68 289.291 252.83C289.2 252.977 289.155 253.146 289.155 253.335V256H288.305Z" fill="#98A2B3"/>
</g>
<g filter="url(#filter1_d_1723_7173)">
<rect x="314" y="94" width="293" height="232" rx="12" fill="white"/>
<rect x="313.5" y="93.5" width="294" height="233" rx="12.5" stroke="#E4E7EC"/>
<path d="M330.676 116.912V115.818H338.312V116.912H335.111V126H333.878V116.912H330.676ZM341.851 126.159C341.162 126.159 340.557 125.995 340.037 125.667C339.519 125.339 339.115 124.88 338.823 124.29C338.535 123.7 338.391 123.01 338.391 122.222C338.391 121.426 338.535 120.732 338.823 120.138C339.115 119.545 339.519 119.085 340.037 118.756C340.557 118.428 341.162 118.264 341.851 118.264C342.541 118.264 343.144 118.428 343.661 118.756C344.181 119.085 344.586 119.545 344.874 120.138C345.166 120.732 345.311 121.426 345.311 122.222C345.311 123.01 345.166 123.7 344.874 124.29C344.586 124.88 344.181 125.339 343.661 125.667C343.144 125.995 342.541 126.159 341.851 126.159ZM341.851 125.105C342.375 125.105 342.806 124.971 343.144 124.702C343.482 124.434 343.732 124.081 343.894 123.643C344.057 123.206 344.138 122.732 344.138 122.222C344.138 121.711 344.057 121.236 343.894 120.795C343.732 120.354 343.482 119.998 343.144 119.726C342.806 119.454 342.375 119.318 341.851 119.318C341.327 119.318 340.897 119.454 340.559 119.726C340.22 119.998 339.97 120.354 339.808 120.795C339.645 121.236 339.564 121.711 339.564 122.222C339.564 122.732 339.645 123.206 339.808 123.643C339.97 124.081 340.22 124.434 340.559 124.702C340.897 124.971 341.327 125.105 341.851 125.105ZM350.223 118.364V119.358H346.266V118.364H350.223ZM347.419 116.534H348.593V123.812C348.593 124.144 348.641 124.393 348.737 124.558C348.836 124.721 348.962 124.83 349.115 124.886C349.271 124.939 349.435 124.966 349.607 124.966C349.736 124.966 349.842 124.959 349.925 124.946C350.008 124.929 350.074 124.916 350.124 124.906L350.363 125.96C350.283 125.99 350.172 126.02 350.03 126.05C349.887 126.083 349.706 126.099 349.488 126.099C349.156 126.099 348.831 126.028 348.513 125.886C348.198 125.743 347.936 125.526 347.728 125.234C347.522 124.943 347.419 124.575 347.419 124.131V116.534ZM354.035 126.179C353.552 126.179 353.112 126.088 352.718 125.906C352.324 125.72 352.01 125.453 351.778 125.105C351.546 124.754 351.43 124.33 351.43 123.832C351.43 123.395 351.517 123.04 351.689 122.768C351.861 122.493 352.092 122.278 352.38 122.122C352.668 121.966 352.986 121.85 353.334 121.774C353.686 121.695 354.039 121.632 354.393 121.585C354.857 121.526 355.234 121.481 355.522 121.451C355.814 121.418 356.026 121.363 356.158 121.287C356.294 121.211 356.362 121.078 356.362 120.889V120.849C356.362 120.359 356.228 119.978 355.959 119.706C355.694 119.434 355.292 119.298 354.751 119.298C354.191 119.298 353.752 119.421 353.434 119.666C353.116 119.911 352.892 120.173 352.763 120.452L351.649 120.054C351.848 119.59 352.113 119.229 352.445 118.97C352.779 118.708 353.144 118.526 353.538 118.423C353.936 118.317 354.327 118.264 354.712 118.264C354.957 118.264 355.239 118.294 355.557 118.354C355.878 118.41 356.188 118.528 356.486 118.707C356.788 118.886 357.038 119.156 357.237 119.517C357.436 119.878 357.535 120.362 357.535 120.969V126H356.362V124.966H356.303C356.223 125.132 356.09 125.309 355.905 125.498C355.719 125.687 355.472 125.848 355.164 125.98C354.856 126.113 354.48 126.179 354.035 126.179ZM354.214 125.125C354.678 125.125 355.07 125.034 355.388 124.852C355.709 124.669 355.951 124.434 356.114 124.146C356.279 123.857 356.362 123.554 356.362 123.236V122.162C356.312 122.222 356.203 122.276 356.034 122.326C355.868 122.372 355.676 122.414 355.457 122.45C355.242 122.483 355.031 122.513 354.826 122.54C354.624 122.563 354.46 122.583 354.334 122.599C354.029 122.639 353.744 122.704 353.479 122.793C353.217 122.879 353.005 123.01 352.842 123.186C352.683 123.358 352.604 123.594 352.604 123.892C352.604 124.3 352.754 124.608 353.056 124.817C353.361 125.022 353.747 125.125 354.214 125.125ZM360.65 115.818V126H359.477V115.818H360.65ZM369.439 126.159C368.75 126.159 368.145 125.995 367.624 125.667C367.107 125.339 366.703 124.88 366.411 124.29C366.123 123.7 365.979 123.01 365.979 122.222C365.979 121.426 366.123 120.732 366.411 120.138C366.703 119.545 367.107 119.085 367.624 118.756C368.145 118.428 368.75 118.264 369.439 118.264C370.128 118.264 370.732 118.428 371.249 118.756C371.769 119.085 372.173 119.545 372.462 120.138C372.753 120.732 372.899 121.426 372.899 122.222C372.899 123.01 372.753 123.7 372.462 124.29C372.173 124.88 371.769 125.339 371.249 125.667C370.732 125.995 370.128 126.159 369.439 126.159ZM369.439 125.105C369.963 125.105 370.394 124.971 370.732 124.702C371.07 124.434 371.32 124.081 371.482 123.643C371.645 123.206 371.726 122.732 371.726 122.222C371.726 121.711 371.645 121.236 371.482 120.795C371.32 120.354 371.07 119.998 370.732 119.726C370.394 119.454 369.963 119.318 369.439 119.318C368.915 119.318 368.484 119.454 368.146 119.726C367.808 119.998 367.558 120.354 367.396 120.795C367.233 121.236 367.152 121.711 367.152 122.222C367.152 122.732 367.233 123.206 367.396 123.643C367.558 124.081 367.808 124.434 368.146 124.702C368.484 124.971 368.915 125.105 369.439 125.105ZM374.49 126V118.364H375.624V119.517H375.703C375.843 119.139 376.094 118.833 376.459 118.597C376.824 118.362 377.235 118.244 377.692 118.244C377.778 118.244 377.886 118.246 378.015 118.249C378.144 118.253 378.242 118.258 378.308 118.264V119.457C378.269 119.447 378.178 119.433 378.035 119.413C377.896 119.389 377.748 119.378 377.593 119.378C377.221 119.378 376.89 119.456 376.598 119.612C376.31 119.764 376.081 119.976 375.912 120.248C375.746 120.516 375.664 120.823 375.664 121.168V126H374.49ZM382.15 126.159C381.514 126.159 380.952 125.998 380.465 125.677C379.978 125.352 379.597 124.895 379.322 124.305C379.046 123.711 378.909 123.01 378.909 122.202C378.909 121.4 379.046 120.704 379.322 120.114C379.597 119.524 379.979 119.068 380.47 118.746C380.96 118.425 381.527 118.264 382.17 118.264C382.667 118.264 383.06 118.347 383.349 118.513C383.64 118.675 383.862 118.861 384.015 119.07C384.17 119.275 384.291 119.444 384.378 119.577H384.477V115.818H385.65V126H384.517V124.827H384.378C384.291 124.966 384.169 125.142 384.01 125.354C383.851 125.562 383.624 125.75 383.329 125.915C383.034 126.078 382.641 126.159 382.15 126.159ZM382.309 125.105C382.78 125.105 383.178 124.982 383.503 124.737C383.827 124.489 384.074 124.146 384.243 123.708C384.412 123.267 384.497 122.759 384.497 122.182C384.497 121.612 384.414 121.113 384.248 120.685C384.083 120.254 383.837 119.92 383.513 119.681C383.188 119.439 382.787 119.318 382.309 119.318C381.812 119.318 381.398 119.446 381.067 119.701C380.738 119.953 380.492 120.296 380.326 120.73C380.163 121.161 380.082 121.645 380.082 122.182C380.082 122.725 380.165 123.219 380.331 123.663C380.5 124.104 380.748 124.455 381.076 124.717C381.408 124.976 381.819 125.105 382.309 125.105ZM390.964 126.159C390.228 126.159 389.593 125.997 389.06 125.672C388.529 125.344 388.12 124.886 387.832 124.3C387.547 123.71 387.404 123.024 387.404 122.241C387.404 121.459 387.547 120.77 387.832 120.173C388.12 119.573 388.521 119.106 389.035 118.771C389.552 118.433 390.155 118.264 390.845 118.264C391.242 118.264 391.635 118.33 392.023 118.463C392.411 118.596 392.764 118.811 393.082 119.109C393.4 119.404 393.653 119.795 393.842 120.283C394.031 120.77 394.126 121.37 394.126 122.082V122.58H388.239V121.565H392.933C392.933 121.134 392.846 120.75 392.674 120.412C392.505 120.074 392.263 119.807 391.948 119.612C391.637 119.416 391.269 119.318 390.845 119.318C390.377 119.318 389.973 119.434 389.631 119.666C389.293 119.895 389.033 120.193 388.851 120.561C388.669 120.929 388.577 121.323 388.577 121.744V122.42C388.577 122.997 388.677 123.486 388.876 123.887C389.078 124.285 389.358 124.588 389.716 124.797C390.074 125.002 390.49 125.105 390.964 125.105C391.272 125.105 391.55 125.062 391.799 124.976C392.051 124.886 392.268 124.754 392.45 124.578C392.633 124.399 392.774 124.177 392.873 123.912L394.006 124.23C393.887 124.615 393.687 124.953 393.405 125.244C393.123 125.533 392.775 125.758 392.361 125.92C391.947 126.08 391.481 126.159 390.964 126.159ZM395.711 126V118.364H396.844V119.517H396.924C397.063 119.139 397.315 118.833 397.679 118.597C398.044 118.362 398.455 118.244 398.912 118.244C398.998 118.244 399.106 118.246 399.235 118.249C399.365 118.253 399.462 118.258 399.529 118.264V119.457C399.489 119.447 399.398 119.433 399.255 119.413C399.116 119.389 398.969 119.378 398.813 119.378C398.442 119.378 398.11 119.456 397.819 119.612C397.53 119.764 397.301 119.976 397.132 120.248C396.967 120.516 396.884 120.823 396.884 121.168V126H395.711ZM406.129 120.074L405.075 120.372C405.008 120.196 404.911 120.026 404.781 119.86C404.655 119.691 404.483 119.552 404.264 119.442C404.046 119.333 403.765 119.278 403.424 119.278C402.957 119.278 402.567 119.386 402.256 119.602C401.948 119.814 401.793 120.084 401.793 120.412C401.793 120.704 401.899 120.934 402.112 121.103C402.324 121.272 402.655 121.413 403.106 121.526L404.239 121.804C404.922 121.97 405.431 122.223 405.766 122.565C406.1 122.903 406.268 123.339 406.268 123.872C406.268 124.31 406.142 124.701 405.89 125.045C405.641 125.39 405.293 125.662 404.846 125.861C404.399 126.06 403.878 126.159 403.285 126.159C402.506 126.159 401.861 125.99 401.351 125.652C400.841 125.314 400.517 124.82 400.382 124.17L401.495 123.892C401.601 124.303 401.802 124.611 402.097 124.817C402.395 125.022 402.784 125.125 403.265 125.125C403.812 125.125 404.246 125.009 404.568 124.777C404.892 124.542 405.055 124.26 405.055 123.932C405.055 123.667 404.962 123.445 404.776 123.266C404.591 123.083 404.306 122.947 403.921 122.858L402.649 122.56C401.949 122.394 401.435 122.137 401.107 121.789C400.783 121.438 400.62 120.999 400.62 120.472C400.62 120.041 400.741 119.66 400.983 119.328C401.228 118.997 401.561 118.737 401.982 118.548C402.407 118.359 402.887 118.264 403.424 118.264C404.18 118.264 404.773 118.43 405.204 118.761C405.638 119.093 405.946 119.53 406.129 120.074Z" fill="#344054"/>
<path d="M417 115.625C416.036 115.625 415.093 115.911 414.292 116.447C413.49 116.982 412.865 117.744 412.496 118.634C412.127 119.525 412.031 120.505 412.219 121.451C412.407 122.397 412.871 123.265 413.553 123.947C414.235 124.629 415.103 125.093 416.049 125.281C416.995 125.469 417.975 125.373 418.866 125.004C419.756 124.635 420.518 124.01 421.053 123.208C421.589 122.407 421.875 121.464 421.875 120.5C421.874 119.207 421.36 117.968 420.446 117.054C419.532 116.14 418.293 115.626 417 115.625ZM416.813 117.875C416.924 117.875 417.033 117.908 417.125 117.97C417.218 118.032 417.29 118.119 417.332 118.222C417.375 118.325 417.386 118.438 417.364 118.547C417.342 118.656 417.289 118.757 417.21 118.835C417.132 118.914 417.031 118.967 416.922 118.989C416.813 119.011 416.7 119 416.597 118.957C416.494 118.915 416.407 118.843 416.345 118.75C416.283 118.658 416.25 118.549 416.25 118.438C416.25 118.288 416.309 118.145 416.415 118.04C416.52 117.934 416.663 117.875 416.813 117.875ZM417.375 123.125C417.176 123.125 416.985 123.046 416.845 122.905C416.704 122.765 416.625 122.574 416.625 122.375V120.5C416.526 120.5 416.43 120.46 416.36 120.39C416.29 120.32 416.25 120.224 416.25 120.125C416.25 120.026 416.29 119.93 416.36 119.86C416.43 119.79 416.526 119.75 416.625 119.75C416.824 119.75 417.015 119.829 417.155 119.97C417.296 120.11 417.375 120.301 417.375 120.5V122.375C417.474 122.375 417.57 122.415 417.64 122.485C417.71 122.555 417.75 122.651 417.75 122.75C417.75 122.849 417.71 122.945 417.64 123.015C417.57 123.085 417.474 123.125 417.375 123.125Z" fill="#98A2B3"/>
<path d="M338.651 144.545V162H335.489V147.622H335.386L331.304 150.23V147.332L335.642 144.545H338.651ZM345.278 159.614L345.167 160.551C345.087 161.267 344.945 161.994 344.741 162.733C344.542 163.477 344.332 164.162 344.11 164.787C343.888 165.412 343.71 165.903 343.573 166.261H341.494C341.573 165.915 341.681 165.443 341.817 164.847C341.96 164.25 342.096 163.58 342.227 162.835C342.357 162.091 342.445 161.335 342.491 160.568L342.55 159.614H345.278ZM347.884 158.761V156.247L355.29 144.545H357.387V148.125H356.109L351.123 156.026V156.162H361.461V158.761H347.884ZM356.211 162V157.994L356.245 156.869V144.545H359.228V162H356.211ZM369.948 162.239C368.721 162.239 367.63 162.028 366.675 161.608C365.727 161.187 364.977 160.602 364.425 159.852C363.874 159.102 363.582 158.236 363.548 157.253H366.752C366.781 157.724 366.937 158.136 367.221 158.489C367.505 158.835 367.883 159.105 368.354 159.298C368.826 159.491 369.354 159.588 369.94 159.588C370.565 159.588 371.119 159.48 371.602 159.264C372.085 159.043 372.462 158.736 372.735 158.344C373.008 157.952 373.141 157.5 373.136 156.989C373.141 156.46 373.005 155.994 372.727 155.591C372.448 155.187 372.045 154.872 371.516 154.645C370.994 154.418 370.363 154.304 369.624 154.304H368.082V151.866H369.624C370.232 151.866 370.763 151.761 371.218 151.551C371.678 151.341 372.039 151.045 372.3 150.665C372.562 150.278 372.69 149.832 372.684 149.327C372.69 148.832 372.579 148.403 372.352 148.04C372.13 147.67 371.815 147.384 371.406 147.179C371.002 146.974 370.528 146.872 369.982 146.872C369.448 146.872 368.954 146.969 368.499 147.162C368.045 147.355 367.678 147.631 367.4 147.989C367.121 148.341 366.974 148.761 366.957 149.25H363.914C363.937 148.273 364.218 147.415 364.758 146.676C365.303 145.932 366.031 145.352 366.94 144.938C367.849 144.517 368.869 144.307 369.999 144.307C371.164 144.307 372.175 144.526 373.033 144.963C373.897 145.395 374.565 145.977 375.036 146.71C375.508 147.443 375.744 148.253 375.744 149.139C375.749 150.122 375.46 150.946 374.874 151.611C374.295 152.276 373.533 152.71 372.59 152.915V153.051C373.817 153.222 374.758 153.676 375.411 154.415C376.07 155.148 376.397 156.06 376.391 157.151C376.391 158.128 376.113 159.003 375.556 159.776C375.005 160.543 374.244 161.145 373.272 161.582C372.306 162.02 371.198 162.239 369.948 162.239ZM384.885 162.239C383.749 162.239 382.732 162.026 381.834 161.599C380.936 161.168 380.223 160.577 379.695 159.827C379.172 159.077 378.893 158.219 378.859 157.253H381.928C381.984 157.969 382.294 158.554 382.857 159.009C383.419 159.457 384.095 159.682 384.885 159.682C385.504 159.682 386.055 159.54 386.538 159.256C387.021 158.972 387.402 158.577 387.68 158.071C387.959 157.565 388.095 156.989 388.089 156.341C388.095 155.682 387.956 155.097 387.672 154.585C387.388 154.074 386.999 153.673 386.504 153.384C386.01 153.088 385.442 152.94 384.8 152.94C384.277 152.935 383.763 153.031 383.257 153.23C382.751 153.429 382.351 153.69 382.055 154.014L379.2 153.545L380.112 144.545H390.237V147.188H382.729L382.226 151.815H382.328C382.652 151.435 383.109 151.119 383.7 150.869C384.291 150.614 384.939 150.486 385.643 150.486C386.7 150.486 387.643 150.736 388.473 151.236C389.303 151.73 389.956 152.412 390.433 153.281C390.911 154.151 391.149 155.145 391.149 156.264C391.149 157.418 390.882 158.446 390.348 159.349C389.82 160.247 389.084 160.955 388.141 161.472C387.203 161.983 386.118 162.239 384.885 162.239Z" fill="#101928"/>
<rect x="397" y="144" width="48" height="18" rx="9" fill="#E7F6EC"/>
<path d="M412.563 150V154.875C412.563 155.024 412.503 155.167 412.398 155.273C412.292 155.378 412.149 155.438 412 155.438C411.851 155.438 411.708 155.378 411.602 155.273C411.497 155.167 411.438 155.024 411.438 154.875V151.359L406.398 156.398C406.292 156.504 406.149 156.563 406 156.563C405.85 156.563 405.707 156.504 405.601 156.398C405.495 156.292 405.436 156.149 405.436 156C405.436 155.85 405.495 155.707 405.601 155.601L410.641 150.562H407.125C406.976 150.562 406.833 150.503 406.727 150.398C406.622 150.292 406.563 150.149 406.563 150C406.563 149.851 406.622 149.708 406.727 149.602C406.833 149.497 406.976 149.438 407.125 149.438H412C412.149 149.438 412.292 149.497 412.398 149.602C412.503 149.708 412.563 149.851 412.563 150Z" fill="#036B26"/>
<path d="M420.232 156.599C419.744 156.599 419.308 156.515 418.925 156.347C418.544 156.179 418.242 155.946 418.019 155.648C417.799 155.347 417.681 154.999 417.664 154.604H418.779C418.793 154.819 418.866 155.006 418.996 155.165C419.128 155.321 419.301 155.442 419.514 155.527C419.727 155.612 419.964 155.655 420.224 155.655C420.511 155.655 420.764 155.605 420.984 155.506C421.207 155.406 421.381 155.268 421.506 155.09C421.632 154.91 421.695 154.703 421.695 154.469C421.695 154.225 421.632 154.011 421.506 153.826C421.383 153.639 421.202 153.492 420.963 153.386C420.726 153.279 420.44 153.226 420.104 153.226H419.489V152.331H420.104C420.374 152.331 420.61 152.282 420.814 152.185C421.02 152.088 421.181 151.953 421.297 151.781C421.413 151.605 421.471 151.401 421.471 151.166C421.471 150.941 421.42 150.746 421.318 150.58C421.219 150.412 421.077 150.281 420.892 150.186C420.71 150.091 420.494 150.044 420.246 150.044C420.009 150.044 419.788 150.088 419.582 150.175C419.378 150.261 419.212 150.384 419.085 150.545C418.957 150.703 418.888 150.894 418.879 151.116H417.817C417.829 150.723 417.945 150.378 418.165 150.08C418.387 149.781 418.681 149.548 419.045 149.38C419.41 149.212 419.815 149.128 420.26 149.128C420.726 149.128 421.129 149.219 421.467 149.401C421.808 149.581 422.071 149.821 422.256 150.122C422.443 150.423 422.535 150.752 422.533 151.109C422.535 151.517 422.421 151.862 422.192 152.146C421.964 152.43 421.661 152.621 421.283 152.718V152.775C421.766 152.848 422.14 153.04 422.405 153.35C422.672 153.66 422.805 154.045 422.803 154.504C422.805 154.904 422.694 155.263 422.469 155.58C422.246 155.897 421.942 156.147 421.556 156.33C421.17 156.509 420.729 156.599 420.232 156.599ZM423.992 155.08V154.192L427.135 149.227H427.835V150.534H427.391L425.143 154.092V154.149H429.45V155.08H423.992ZM427.44 156.5V154.81L427.447 154.405V149.227H428.488V156.5H427.44ZM434.484 155.136V154.753C434.484 154.478 434.541 154.227 434.654 154C434.77 153.77 434.939 153.587 435.159 153.45C435.381 153.31 435.65 153.24 435.965 153.24C436.287 153.24 436.557 153.309 436.775 153.446C436.992 153.583 437.157 153.767 437.268 153.996C437.382 154.226 437.439 154.478 437.439 154.753V155.136C437.439 155.411 437.382 155.663 437.268 155.893C437.154 156.12 436.988 156.304 436.767 156.443C436.55 156.58 436.282 156.649 435.965 156.649C435.645 156.649 435.375 156.58 435.155 156.443C434.935 156.304 434.768 156.12 434.654 155.893C434.541 155.663 434.484 155.411 434.484 155.136ZM435.311 154.753V155.136C435.311 155.34 435.36 155.525 435.457 155.69C435.554 155.856 435.723 155.939 435.965 155.939C436.204 155.939 436.371 155.856 436.466 155.69C436.56 155.525 436.608 155.34 436.608 155.136V154.753C436.608 154.549 436.561 154.365 436.469 154.199C436.379 154.033 436.211 153.95 435.965 153.95C435.728 153.95 435.56 154.033 435.461 154.199C435.361 154.365 435.311 154.549 435.311 154.753ZM430.826 150.974V150.591C430.826 150.316 430.883 150.064 430.997 149.835C431.113 149.605 431.281 149.421 431.501 149.284C431.724 149.147 431.992 149.078 432.307 149.078C432.629 149.078 432.899 149.147 433.117 149.284C433.335 149.421 433.499 149.605 433.61 149.835C433.722 150.064 433.777 150.316 433.777 150.591V150.974C433.777 151.249 433.721 151.501 433.607 151.731C433.496 151.958 433.33 152.142 433.11 152.281C432.892 152.419 432.624 152.487 432.307 152.487C431.985 152.487 431.714 152.419 431.494 152.281C431.276 152.142 431.11 151.958 430.997 151.731C430.883 151.501 430.826 151.249 430.826 150.974ZM431.657 150.591V150.974C431.657 151.178 431.705 151.363 431.799 151.528C431.896 151.694 432.066 151.777 432.307 151.777C432.544 151.777 432.71 151.694 432.804 151.528C432.901 151.363 432.95 151.178 432.95 150.974V150.591C432.95 150.387 432.904 150.203 432.811 150.037C432.719 149.871 432.551 149.788 432.307 149.788C432.07 149.788 431.902 149.871 431.803 150.037C431.706 150.203 431.657 150.387 431.657 150.591ZM431.164 156.5L436.164 149.227H437.012L432.012 156.5H431.164Z" fill="#036B26"/>
<path d="M332.767 191.182V197H331.886V192.062H331.852L330.46 192.972V192.131L331.912 191.182H332.767ZM336.261 197.08C335.905 197.08 335.585 197.011 335.301 196.875C335.019 196.737 334.794 196.547 334.625 196.307C334.456 196.066 334.366 195.792 334.355 195.483H335.207C335.228 195.733 335.339 195.938 335.54 196.099C335.741 196.26 335.981 196.341 336.261 196.341C336.485 196.341 336.683 196.29 336.855 196.188C337.029 196.083 337.166 195.94 337.264 195.759C337.365 195.577 337.415 195.369 337.415 195.136C337.415 194.9 337.364 194.688 337.261 194.503C337.159 194.317 337.018 194.171 336.838 194.065C336.66 193.959 336.455 193.905 336.224 193.903C336.048 193.903 335.871 193.934 335.693 193.994C335.515 194.055 335.371 194.134 335.261 194.233L334.457 194.114L334.784 191.182H337.983V191.935H335.514L335.33 193.562H335.364C335.477 193.453 335.628 193.361 335.815 193.287C336.005 193.213 336.207 193.176 336.423 193.176C336.777 193.176 337.093 193.26 337.369 193.429C337.648 193.598 337.866 193.828 338.026 194.119C338.187 194.409 338.266 194.742 338.264 195.119C338.266 195.496 338.181 195.832 338.009 196.128C337.838 196.423 337.601 196.656 337.298 196.827C336.997 196.995 336.652 197.08 336.261 197.08ZM341.327 197.097C340.879 197.095 340.495 196.976 340.177 196.741C339.859 196.507 339.615 196.165 339.447 195.716C339.278 195.267 339.194 194.726 339.194 194.094C339.194 193.463 339.278 192.924 339.447 192.477C339.617 192.03 339.862 191.689 340.18 191.455C340.5 191.22 340.882 191.102 341.327 191.102C341.772 191.102 342.154 191.221 342.472 191.457C342.79 191.692 343.034 192.033 343.202 192.48C343.373 192.925 343.458 193.463 343.458 194.094C343.458 194.728 343.374 195.27 343.205 195.719C343.037 196.166 342.793 196.508 342.475 196.744C342.157 196.979 341.774 197.097 341.327 197.097ZM341.327 196.338C341.721 196.338 342.029 196.146 342.251 195.761C342.474 195.377 342.586 194.821 342.586 194.094C342.586 193.611 342.535 193.203 342.433 192.869C342.332 192.534 342.187 192.28 341.998 192.108C341.81 191.934 341.587 191.847 341.327 191.847C340.935 191.847 340.628 192.04 340.404 192.426C340.181 192.812 340.068 193.368 340.066 194.094C340.066 194.579 340.116 194.989 340.217 195.324C340.319 195.657 340.464 195.91 340.651 196.082C340.839 196.253 341.064 196.338 341.327 196.338ZM346.491 197.097C346.043 197.095 345.659 196.976 345.341 196.741C345.023 196.507 344.779 196.165 344.611 195.716C344.442 195.267 344.358 194.726 344.358 194.094C344.358 193.463 344.442 192.924 344.611 192.477C344.781 192.03 345.026 191.689 345.344 191.455C345.664 191.22 346.046 191.102 346.491 191.102C346.937 191.102 347.318 191.221 347.636 191.457C347.955 191.692 348.198 192.033 348.366 192.48C348.537 192.925 348.622 193.463 348.622 194.094C348.622 194.728 348.538 195.27 348.369 195.719C348.201 196.166 347.957 196.508 347.639 196.744C347.321 196.979 346.938 197.097 346.491 197.097ZM346.491 196.338C346.885 196.338 347.193 196.146 347.415 195.761C347.638 195.377 347.75 194.821 347.75 194.094C347.75 193.611 347.699 193.203 347.597 192.869C347.496 192.534 347.351 192.28 347.162 192.108C346.974 191.934 346.751 191.847 346.491 191.847C346.099 191.847 345.792 192.04 345.568 192.426C345.345 192.812 345.232 193.368 345.23 194.094C345.23 194.579 345.28 194.989 345.381 195.324C345.483 195.657 345.628 195.91 345.815 196.082C346.003 196.253 346.228 196.338 346.491 196.338Z" fill="#98A2B3"/>
<path d="M332.767 221.182V227H331.886V222.062H331.852L330.46 222.972V222.131L331.912 221.182H332.767ZM336.366 227.097C335.918 227.095 335.534 226.976 335.216 226.741C334.898 226.507 334.654 226.165 334.486 225.716C334.317 225.267 334.233 224.726 334.233 224.094C334.233 223.463 334.317 222.924 334.486 222.477C334.656 222.03 334.901 221.689 335.219 221.455C335.539 221.22 335.921 221.102 336.366 221.102C336.812 221.102 337.193 221.221 337.511 221.457C337.83 221.692 338.073 222.033 338.241 222.48C338.412 222.925 338.497 223.463 338.497 224.094C338.497 224.728 338.413 225.27 338.244 225.719C338.076 226.166 337.832 226.508 337.514 226.744C337.196 226.979 336.813 227.097 336.366 227.097ZM336.366 226.338C336.76 226.338 337.068 226.146 337.29 225.761C337.513 225.377 337.625 224.821 337.625 224.094C337.625 223.611 337.574 223.203 337.472 222.869C337.371 222.534 337.226 222.28 337.037 222.108C336.849 221.934 336.626 221.847 336.366 221.847C335.974 221.847 335.667 222.04 335.443 222.426C335.22 222.812 335.107 223.368 335.105 224.094C335.105 224.579 335.155 224.989 335.256 225.324C335.358 225.657 335.503 225.91 335.69 226.082C335.878 226.253 336.103 226.338 336.366 226.338ZM341.531 227.097C341.082 227.095 340.698 226.976 340.38 226.741C340.062 226.507 339.818 226.165 339.65 225.716C339.481 225.267 339.397 224.726 339.397 224.094C339.397 223.463 339.481 222.924 339.65 222.477C339.82 222.03 340.065 221.689 340.383 221.455C340.703 221.22 341.085 221.102 341.531 221.102C341.976 221.102 342.357 221.221 342.675 221.457C342.994 221.692 343.237 222.033 343.406 222.48C343.576 222.925 343.661 223.463 343.661 224.094C343.661 224.728 343.577 225.27 343.408 225.719C343.24 226.166 342.996 226.508 342.678 226.744C342.36 226.979 341.978 227.097 341.531 227.097ZM341.531 226.338C341.924 226.338 342.232 226.146 342.454 225.761C342.677 225.377 342.789 224.821 342.789 224.094C342.789 223.611 342.738 223.203 342.636 222.869C342.535 222.534 342.39 222.28 342.201 222.108C342.013 221.934 341.79 221.847 341.531 221.847C341.138 221.847 340.831 222.04 340.607 222.426C340.384 222.812 340.271 223.368 340.269 224.094C340.269 224.579 340.319 224.989 340.42 225.324C340.522 225.657 340.667 225.91 340.854 226.082C341.042 226.253 341.267 226.338 341.531 226.338ZM346.695 227.097C346.246 227.095 345.862 226.976 345.544 226.741C345.226 226.507 344.982 226.165 344.814 225.716C344.645 225.267 344.561 224.726 344.561 224.094C344.561 223.463 344.645 222.924 344.814 222.477C344.984 222.03 345.229 221.689 345.547 221.455C345.867 221.22 346.25 221.102 346.695 221.102C347.14 221.102 347.521 221.221 347.839 221.457C348.158 221.692 348.401 222.033 348.57 222.48C348.74 222.925 348.825 223.463 348.825 224.094C348.825 224.728 348.741 225.27 348.572 225.719C348.404 226.166 348.161 226.508 347.842 226.744C347.524 226.979 347.142 227.097 346.695 227.097ZM346.695 226.338C347.089 226.338 347.396 226.146 347.618 225.761C347.841 225.377 347.953 224.821 347.953 224.094C347.953 223.611 347.902 223.203 347.8 222.869C347.699 222.534 347.554 222.28 347.365 222.108C347.178 221.934 346.954 221.847 346.695 221.847C346.303 221.847 345.995 222.04 345.771 222.426C345.548 222.812 345.435 223.368 345.433 224.094C345.433 224.579 345.483 224.989 345.584 225.324C345.686 225.657 345.831 225.91 346.018 226.082C346.206 226.253 346.431 226.338 346.695 226.338Z" fill="#98A2B3"/>
<path d="M332.48 257.08C332.124 257.08 331.804 257.011 331.52 256.875C331.238 256.737 331.012 256.547 330.844 256.307C330.675 256.066 330.585 255.792 330.574 255.483H331.426C331.447 255.733 331.558 255.938 331.759 256.099C331.959 256.26 332.2 256.341 332.48 256.341C332.704 256.341 332.902 256.29 333.074 256.188C333.248 256.083 333.384 255.94 333.483 255.759C333.583 255.577 333.634 255.369 333.634 255.136C333.634 254.9 333.582 254.688 333.48 254.503C333.378 254.317 333.237 254.171 333.057 254.065C332.879 253.959 332.674 253.905 332.443 253.903C332.267 253.903 332.09 253.934 331.912 253.994C331.734 254.055 331.59 254.134 331.48 254.233L330.676 254.114L331.003 251.182H334.202V251.935H331.733L331.548 253.562H331.582C331.696 253.453 331.847 253.361 332.034 253.287C332.223 253.213 332.426 253.176 332.642 253.176C332.996 253.176 333.312 253.26 333.588 253.429C333.866 253.598 334.085 253.828 334.244 254.119C334.405 254.409 334.485 254.742 334.483 255.119C334.485 255.496 334.4 255.832 334.227 256.128C334.057 256.423 333.82 256.656 333.517 256.827C333.216 256.995 332.87 257.08 332.48 257.08ZM337.546 257.097C337.097 257.095 336.714 256.976 336.396 256.741C336.077 256.507 335.834 256.165 335.665 255.716C335.497 255.267 335.413 254.726 335.413 254.094C335.413 253.463 335.497 252.924 335.665 252.477C335.836 252.03 336.08 251.689 336.398 251.455C336.719 251.22 337.101 251.102 337.546 251.102C337.991 251.102 338.373 251.221 338.691 251.457C339.009 251.692 339.253 252.033 339.421 252.48C339.592 252.925 339.677 253.463 339.677 254.094C339.677 254.728 339.593 255.27 339.424 255.719C339.255 256.166 339.012 256.508 338.694 256.744C338.376 256.979 337.993 257.097 337.546 257.097ZM337.546 256.338C337.94 256.338 338.248 256.146 338.469 255.761C338.693 255.377 338.805 254.821 338.805 254.094C338.805 253.611 338.754 253.203 338.651 252.869C338.551 252.534 338.406 252.28 338.217 252.108C338.029 251.934 337.806 251.847 337.546 251.847C337.154 251.847 336.846 252.04 336.623 252.426C336.399 252.812 336.287 253.368 336.285 254.094C336.285 254.579 336.335 254.989 336.435 255.324C336.538 255.657 336.683 255.91 336.87 256.082C337.058 256.253 337.283 256.338 337.546 256.338ZM342.71 257.097C342.261 257.095 341.878 256.976 341.56 256.741C341.241 256.507 340.998 256.165 340.83 255.716C340.661 255.267 340.577 254.726 340.577 254.094C340.577 253.463 340.661 252.924 340.83 252.477C341 252.03 341.244 251.689 341.562 251.455C341.883 251.22 342.265 251.102 342.71 251.102C343.155 251.102 343.537 251.221 343.855 251.457C344.173 251.692 344.417 252.033 344.585 252.48C344.756 252.925 344.841 253.463 344.841 254.094C344.841 254.728 344.757 255.27 344.588 255.719C344.42 256.166 344.176 256.508 343.858 256.744C343.54 256.979 343.157 257.097 342.71 257.097ZM342.71 256.338C343.104 256.338 343.412 256.146 343.634 255.761C343.857 255.377 343.969 254.821 343.969 254.094C343.969 253.611 343.918 253.203 343.815 252.869C343.715 252.534 343.57 252.28 343.381 252.108C343.193 251.934 342.97 251.847 342.71 251.847C342.318 251.847 342.01 252.04 341.787 252.426C341.563 252.812 341.451 253.368 341.449 254.094C341.449 254.579 341.499 254.989 341.599 255.324C341.702 255.657 341.847 255.91 342.034 256.082C342.222 256.253 342.447 256.338 342.71 256.338Z" fill="#98A2B3"/>
<path d="M332.585 287.097C332.136 287.095 331.753 286.976 331.435 286.741C331.116 286.507 330.873 286.165 330.705 285.716C330.536 285.267 330.452 284.726 330.452 284.094C330.452 283.463 330.536 282.924 330.705 282.477C330.875 282.03 331.119 281.689 331.438 281.455C331.758 281.22 332.14 281.102 332.585 281.102C333.03 281.102 333.412 281.221 333.73 281.457C334.048 281.692 334.292 282.033 334.46 282.48C334.631 282.925 334.716 283.463 334.716 284.094C334.716 284.728 334.632 285.27 334.463 285.719C334.295 286.166 334.051 286.508 333.733 286.744C333.415 286.979 333.032 287.097 332.585 287.097ZM332.585 286.338C332.979 286.338 333.287 286.146 333.509 285.761C333.732 285.377 333.844 284.821 333.844 284.094C333.844 283.611 333.793 283.203 333.69 282.869C333.59 282.534 333.445 282.28 333.256 282.108C333.068 281.934 332.845 281.847 332.585 281.847C332.193 281.847 331.885 282.04 331.662 282.426C331.438 282.812 331.326 283.368 331.324 284.094C331.324 284.579 331.374 284.989 331.474 285.324C331.577 285.657 331.722 285.91 331.909 286.082C332.097 286.253 332.322 286.338 332.585 286.338Z" fill="#98A2B3"/>
<line x1="357" y1="194" x2="591" y2="194" stroke="#F0F2F5"/>
<line x1="357" y1="224" x2="591" y2="224" stroke="#F0F2F5"/>
<line x1="357" y1="254" x2="591" y2="254" stroke="#F0F2F5"/>
<line x1="357" y1="284" x2="591" y2="284" stroke="#F0F2F5"/>
<rect x="392" y="230" width="15" height="54" rx="3" fill="#E54120"/>
<rect x="430" y="245" width="15" height="39" rx="3" fill="#E54120"/>
<rect x="468" y="216" width="15" height="68" rx="3" fill="#E54120"/>
<rect x="506" y="211" width="15" height="73" rx="3" fill="#E54120"/>
<rect x="544" y="202" width="15" height="82" rx="3" fill="#E54120"/>
<path d="M390.131 305H389.199L391.293 299.182H392.307L394.401 305H393.469L391.824 300.239H391.778L390.131 305ZM390.287 302.722H393.31V303.46H390.287V302.722ZM397.937 303.19V300.636H398.789V305H397.954V304.244H397.908C397.808 304.477 397.647 304.671 397.425 304.827C397.206 304.98 396.932 305.057 396.604 305.057C396.324 305.057 396.076 304.995 395.86 304.872C395.646 304.747 395.478 304.562 395.354 304.318C395.233 304.074 395.173 303.772 395.173 303.412V300.636H396.022V303.31C396.022 303.607 396.104 303.844 396.269 304.02C396.434 304.196 396.648 304.284 396.911 304.284C397.07 304.284 397.228 304.244 397.386 304.165C397.545 304.085 397.676 303.965 397.781 303.804C397.887 303.643 397.939 303.438 397.937 303.19ZM401.76 306.727C401.413 306.727 401.115 306.682 400.865 306.591C400.617 306.5 400.414 306.38 400.257 306.23C400.1 306.08 399.982 305.917 399.905 305.739L400.635 305.438C400.686 305.521 400.754 305.609 400.839 305.702C400.927 305.796 401.044 305.877 401.192 305.943C401.341 306.009 401.534 306.043 401.768 306.043C402.09 306.043 402.357 305.964 402.567 305.807C402.777 305.652 402.882 305.403 402.882 305.062V304.205H402.828C402.777 304.297 402.703 304.401 402.607 304.514C402.512 304.628 402.381 304.726 402.214 304.81C402.048 304.893 401.831 304.935 401.564 304.935C401.219 304.935 400.909 304.854 400.632 304.693C400.357 304.53 400.14 304.291 399.979 303.974C399.82 303.656 399.74 303.265 399.74 302.801C399.74 302.337 399.819 301.939 399.976 301.608C400.135 301.277 400.353 301.023 400.629 300.847C400.906 300.669 401.219 300.58 401.57 300.58C401.84 300.58 402.059 300.625 402.226 300.716C402.393 300.805 402.522 300.909 402.615 301.028C402.71 301.148 402.783 301.253 402.834 301.344H402.896V300.636H403.729V305.097C403.729 305.472 403.642 305.779 403.467 306.02C403.293 306.26 403.057 306.438 402.76 306.554C402.464 306.67 402.131 306.727 401.76 306.727ZM401.751 304.23C401.996 304.23 402.202 304.173 402.371 304.06C402.541 303.944 402.67 303.779 402.757 303.565C402.846 303.349 402.891 303.091 402.891 302.79C402.891 302.496 402.847 302.238 402.76 302.014C402.673 301.791 402.545 301.616 402.376 301.491C402.208 301.365 402 301.301 401.751 301.301C401.496 301.301 401.283 301.367 401.112 301.5C400.942 301.631 400.813 301.809 400.726 302.034C400.641 302.259 400.598 302.511 400.598 302.79C400.598 303.076 400.642 303.327 400.729 303.543C400.816 303.759 400.945 303.927 401.115 304.048C401.287 304.17 401.5 304.23 401.751 304.23Z" fill="#98A2B3"/>
<path d="M431.312 300.71C431.282 300.441 431.157 300.233 430.938 300.085C430.718 299.936 430.441 299.861 430.108 299.861C429.869 299.861 429.663 299.899 429.489 299.974C429.314 300.048 429.179 300.151 429.082 300.281C428.988 300.41 428.94 300.557 428.94 300.722C428.94 300.86 428.973 300.979 429.037 301.08C429.103 301.18 429.189 301.264 429.295 301.332C429.403 301.399 429.519 301.455 429.642 301.5C429.765 301.544 429.884 301.58 429.997 301.608L430.565 301.756C430.751 301.801 430.941 301.863 431.136 301.94C431.331 302.018 431.512 302.12 431.679 302.247C431.846 302.374 431.98 302.531 432.082 302.719C432.187 302.906 432.239 303.131 432.239 303.392C432.239 303.722 432.153 304.014 431.983 304.27C431.814 304.526 431.569 304.727 431.247 304.875C430.927 305.023 430.54 305.097 430.085 305.097C429.65 305.097 429.273 305.027 428.955 304.889C428.636 304.751 428.387 304.555 428.207 304.301C428.027 304.045 427.928 303.742 427.909 303.392H428.79C428.807 303.602 428.875 303.777 428.994 303.918C429.116 304.056 429.27 304.159 429.457 304.227C429.647 304.294 429.854 304.327 430.08 304.327C430.328 304.327 430.548 304.288 430.741 304.21C430.937 304.131 431.09 304.021 431.202 303.881C431.313 303.739 431.369 303.573 431.369 303.384C431.369 303.211 431.32 303.07 431.222 302.96C431.125 302.85 430.993 302.759 430.827 302.688C430.662 302.616 430.475 302.552 430.267 302.497L429.58 302.31C429.114 302.183 428.744 301.996 428.472 301.75C428.201 301.504 428.065 301.178 428.065 300.773C428.065 300.437 428.156 300.145 428.338 299.895C428.52 299.645 428.766 299.451 429.077 299.312C429.387 299.172 429.738 299.102 430.128 299.102C430.522 299.102 430.869 299.171 431.17 299.31C431.473 299.448 431.712 299.638 431.886 299.881C432.061 300.121 432.152 300.398 432.159 300.71H431.312ZM435.1 305.088C434.67 305.088 434.3 304.996 433.989 304.812C433.681 304.627 433.442 304.366 433.273 304.031C433.107 303.694 433.023 303.299 433.023 302.847C433.023 302.4 433.107 302.006 433.273 301.665C433.442 301.324 433.677 301.058 433.978 300.866C434.281 300.675 434.635 300.58 435.04 300.58C435.287 300.58 435.525 300.62 435.756 300.702C435.987 300.783 436.195 300.911 436.379 301.085C436.562 301.259 436.707 301.486 436.813 301.764C436.919 302.041 436.972 302.377 436.972 302.773V303.074H433.504V302.438H436.14C436.14 302.214 436.094 302.016 436.004 301.844C435.913 301.67 435.785 301.532 435.62 301.432C435.457 301.331 435.266 301.281 435.046 301.281C434.808 301.281 434.599 301.34 434.421 301.457C434.245 301.573 434.109 301.724 434.012 301.912C433.917 302.098 433.87 302.299 433.87 302.517V303.014C433.87 303.306 433.921 303.554 434.023 303.759C434.128 303.963 434.272 304.119 434.458 304.227C434.644 304.333 434.861 304.386 435.109 304.386C435.27 304.386 435.416 304.364 435.549 304.318C435.682 304.271 435.796 304.201 435.893 304.108C435.989 304.015 436.063 303.901 436.114 303.764L436.918 303.909C436.854 304.146 436.738 304.353 436.572 304.531C436.407 304.707 436.2 304.845 435.95 304.943C435.701 305.04 435.418 305.088 435.1 305.088ZM437.915 306.636V300.636H438.744V301.344H438.815C438.865 301.253 438.936 301.148 439.028 301.028C439.121 300.909 439.25 300.805 439.415 300.716C439.58 300.625 439.797 300.58 440.068 300.58C440.42 300.58 440.735 300.669 441.011 300.847C441.288 301.025 441.505 301.281 441.662 301.616C441.821 301.952 441.901 302.355 441.901 302.827C441.901 303.298 441.822 303.703 441.665 304.04C441.508 304.375 441.292 304.634 441.017 304.815C440.742 304.995 440.429 305.085 440.077 305.085C439.812 305.085 439.595 305.041 439.426 304.952C439.259 304.863 439.129 304.759 439.034 304.639C438.939 304.52 438.866 304.414 438.815 304.321H438.764V306.636H437.915ZM438.747 302.818C438.747 303.125 438.792 303.394 438.881 303.625C438.97 303.856 439.098 304.037 439.267 304.168C439.436 304.296 439.642 304.361 439.886 304.361C440.14 304.361 440.352 304.294 440.523 304.159C440.693 304.023 440.822 303.838 440.909 303.605C440.998 303.372 441.043 303.11 441.043 302.818C441.043 302.53 440.999 302.272 440.912 302.043C440.827 301.813 440.698 301.633 440.526 301.5C440.355 301.367 440.142 301.301 439.886 301.301C439.64 301.301 439.432 301.365 439.261 301.491C439.093 301.618 438.965 301.795 438.878 302.023C438.791 302.25 438.747 302.515 438.747 302.818ZM444.889 300.636V301.318H442.506V300.636H444.889ZM443.145 299.591H443.994V303.719C443.994 303.884 444.019 304.008 444.068 304.091C444.117 304.172 444.181 304.228 444.259 304.259C444.338 304.287 444.424 304.301 444.517 304.301C444.585 304.301 444.645 304.296 444.696 304.287C444.747 304.277 444.787 304.27 444.815 304.264L444.969 304.966C444.92 304.985 444.849 305.004 444.759 305.023C444.668 305.044 444.554 305.055 444.418 305.057C444.194 305.061 443.986 305.021 443.793 304.938C443.599 304.854 443.443 304.725 443.324 304.551C443.205 304.377 443.145 304.158 443.145 303.895V299.591Z" fill="#98A2B3"/>
<path d="M473.693 302.091C473.693 302.712 473.58 303.246 473.352 303.693C473.125 304.138 472.813 304.481 472.418 304.722C472.024 304.96 471.576 305.08 471.074 305.08C470.57 305.08 470.12 304.96 469.724 304.722C469.33 304.481 469.02 304.137 468.793 303.69C468.565 303.243 468.452 302.71 468.452 302.091C468.452 301.47 468.565 300.937 468.793 300.491C469.02 300.045 469.33 299.702 469.724 299.463C470.12 299.223 470.57 299.102 471.074 299.102C471.576 299.102 472.024 299.223 472.418 299.463C472.813 299.702 473.125 300.045 473.352 300.491C473.58 300.937 473.693 301.47 473.693 302.091ZM472.824 302.091C472.824 301.617 472.747 301.219 472.594 300.895C472.442 300.569 472.234 300.323 471.969 300.156C471.705 299.988 471.407 299.903 471.074 299.903C470.739 299.903 470.439 299.988 470.176 300.156C469.913 300.323 469.705 300.569 469.551 300.895C469.4 301.219 469.324 301.617 469.324 302.091C469.324 302.564 469.4 302.964 469.551 303.29C469.705 303.614 469.913 303.86 470.176 304.028C470.439 304.195 470.739 304.278 471.074 304.278C471.407 304.278 471.705 304.195 471.969 304.028C472.234 303.86 472.442 303.614 472.594 303.29C472.747 302.964 472.824 302.564 472.824 302.091ZM476.558 305.088C476.135 305.088 475.772 304.992 475.467 304.801C475.164 304.608 474.931 304.342 474.768 304.003C474.605 303.664 474.523 303.276 474.523 302.838C474.523 302.395 474.607 302.004 474.773 301.665C474.94 301.324 475.175 301.058 475.478 300.866C475.781 300.675 476.138 300.58 476.549 300.58C476.88 300.58 477.176 300.641 477.435 300.764C477.695 300.885 477.904 301.056 478.063 301.276C478.224 301.495 478.32 301.752 478.35 302.045H477.523C477.478 301.841 477.374 301.665 477.211 301.517C477.05 301.369 476.834 301.295 476.563 301.295C476.326 301.295 476.119 301.358 475.941 301.483C475.765 301.606 475.628 301.782 475.529 302.011C475.431 302.239 475.381 302.508 475.381 302.818C475.381 303.136 475.43 303.411 475.526 303.642C475.623 303.873 475.759 304.052 475.935 304.179C476.113 304.306 476.323 304.369 476.563 304.369C476.724 304.369 476.87 304.34 477.001 304.281C477.133 304.221 477.244 304.134 477.333 304.023C477.424 303.911 477.487 303.777 477.523 303.619H478.35C478.32 303.902 478.228 304.153 478.075 304.375C477.921 304.597 477.716 304.771 477.458 304.898C477.202 305.025 476.902 305.088 476.558 305.088ZM481.295 300.636V301.318H478.912V300.636H481.295ZM479.551 299.591H480.401V303.719C480.401 303.884 480.425 304.008 480.474 304.091C480.524 304.172 480.587 304.228 480.665 304.259C480.744 304.287 480.83 304.301 480.923 304.301C480.991 304.301 481.051 304.296 481.102 304.287C481.153 304.277 481.193 304.27 481.222 304.264L481.375 304.966C481.326 304.985 481.256 305.004 481.165 305.023C481.074 305.044 480.96 305.055 480.824 305.057C480.6 305.061 480.392 305.021 480.199 304.938C480.006 304.854 479.849 304.725 479.73 304.551C479.611 304.377 479.551 304.158 479.551 303.895V299.591Z" fill="#98A2B3"/>
<path d="M509.835 299.182V305H509.028L506.071 300.733H506.017V305H505.139V299.182H505.952L508.912 303.455H508.966V299.182H509.835ZM512.886 305.088C512.477 305.088 512.12 304.994 511.815 304.807C511.51 304.619 511.273 304.357 511.104 304.02C510.936 303.683 510.852 303.289 510.852 302.838C510.852 302.385 510.936 301.99 511.104 301.651C511.273 301.312 511.51 301.048 511.815 300.861C512.12 300.673 512.477 300.58 512.886 300.58C513.295 300.58 513.652 300.673 513.957 300.861C514.262 301.048 514.498 301.312 514.667 301.651C514.835 301.99 514.92 302.385 514.92 302.838C514.92 303.289 514.835 303.683 514.667 304.02C514.498 304.357 514.262 304.619 513.957 304.807C513.652 304.994 513.295 305.088 512.886 305.088ZM512.888 304.375C513.154 304.375 513.373 304.305 513.548 304.165C513.722 304.025 513.851 303.838 513.934 303.605C514.019 303.372 514.062 303.116 514.062 302.835C514.062 302.557 514.019 302.301 513.934 302.068C513.851 301.833 513.722 301.645 513.548 301.503C513.373 301.361 513.154 301.29 512.888 301.29C512.621 301.29 512.4 301.361 512.224 301.503C512.049 301.645 511.92 301.833 511.835 302.068C511.751 302.301 511.71 302.557 511.71 302.835C511.71 303.116 511.751 303.372 511.835 303.605C511.92 303.838 512.049 304.025 512.224 304.165C512.4 304.305 512.621 304.375 512.888 304.375ZM519.452 300.636L517.87 305H516.961L515.376 300.636H516.288L517.393 303.994H517.438L518.54 300.636H519.452Z" fill="#98A2B3"/>
<path d="M545.523 305H543.639V299.182H545.582C546.152 299.182 546.642 299.298 547.051 299.531C547.46 299.762 547.774 300.095 547.991 300.528C548.211 300.96 548.321 301.478 548.321 302.082C548.321 302.688 548.21 303.209 547.989 303.645C547.769 304.08 547.451 304.416 547.034 304.651C546.617 304.884 546.114 305 545.523 305ZM544.517 304.233H545.474C545.918 304.233 546.286 304.15 546.58 303.983C546.873 303.814 547.093 303.571 547.239 303.253C547.384 302.933 547.457 302.543 547.457 302.082C547.457 301.626 547.384 301.239 547.239 300.92C547.095 300.602 546.88 300.361 546.594 300.196C546.308 300.031 545.953 299.949 545.528 299.949H544.517V304.233ZM551.225 305.088C550.795 305.088 550.425 304.996 550.114 304.812C549.806 304.627 549.567 304.366 549.398 304.031C549.232 303.694 549.148 303.299 549.148 302.847C549.148 302.4 549.232 302.006 549.398 301.665C549.567 301.324 549.802 301.058 550.103 300.866C550.406 300.675 550.76 300.58 551.165 300.58C551.412 300.58 551.65 300.62 551.881 300.702C552.112 300.783 552.32 300.911 552.504 301.085C552.687 301.259 552.832 301.486 552.938 301.764C553.044 302.041 553.097 302.377 553.097 302.773V303.074H549.629V302.438H552.265C552.265 302.214 552.219 302.016 552.129 301.844C552.038 301.67 551.91 301.532 551.745 301.432C551.582 301.331 551.391 301.281 551.171 301.281C550.933 301.281 550.724 301.34 550.546 301.457C550.37 301.573 550.234 301.724 550.137 301.912C550.042 302.098 549.995 302.299 549.995 302.517V303.014C549.995 303.306 550.046 303.554 550.148 303.759C550.253 303.963 550.397 304.119 550.583 304.227C550.769 304.333 550.986 304.386 551.234 304.386C551.395 304.386 551.541 304.364 551.674 304.318C551.807 304.271 551.921 304.201 552.018 304.108C552.114 304.015 552.188 303.901 552.239 303.764L553.043 303.909C552.979 304.146 552.863 304.353 552.697 304.531C552.532 304.707 552.325 304.845 552.075 304.943C551.826 305.04 551.543 305.088 551.225 305.088ZM555.878 305.088C555.455 305.088 555.092 304.992 554.787 304.801C554.484 304.608 554.251 304.342 554.088 304.003C553.925 303.664 553.844 303.276 553.844 302.838C553.844 302.395 553.927 302.004 554.094 301.665C554.26 301.324 554.495 301.058 554.798 300.866C555.101 300.675 555.458 300.58 555.869 300.58C556.201 300.58 556.496 300.641 556.756 300.764C557.015 300.885 557.224 301.056 557.384 301.276C557.545 301.495 557.64 301.752 557.67 302.045H556.844C556.798 301.841 556.694 301.665 556.531 301.517C556.37 301.369 556.154 301.295 555.884 301.295C555.647 301.295 555.439 301.358 555.261 301.483C555.085 301.606 554.948 301.782 554.849 302.011C554.751 302.239 554.702 302.508 554.702 302.818C554.702 303.136 554.75 303.411 554.847 303.642C554.943 303.873 555.08 304.052 555.256 304.179C555.434 304.306 555.643 304.369 555.884 304.369C556.045 304.369 556.19 304.34 556.321 304.281C556.454 304.221 556.564 304.134 556.653 304.023C556.744 303.911 556.808 303.777 556.844 303.619H557.67C557.64 303.902 557.548 304.153 557.395 304.375C557.241 304.597 557.036 304.771 556.778 304.898C556.523 305.025 556.223 305.088 555.878 305.088Z" fill="#98A2B3"/>
</g>
<defs>
<filter id="filter0_d_1723_7173" x="40" y="40" width="308" height="250" filterUnits="userSpaceOnUse" color-interpolation-filters="sRGB">
<feFlood flood-opacity="0" result="BackgroundImageFix"/>
<feColorMatrix in="SourceAlpha" type="matrix" values="0 0 0 0 0 0 0 0 0 0 0 0 0 0 0 0 0 0 127 0" result="hardAlpha"/>
<feOffset dy="4"/>
<feGaussianBlur stdDeviation="4"/>
<feComposite in2="hardAlpha" operator="out"/>
<feColorMatrix type="matrix" values="0 0 0 0 0.278431 0 0 0 0 0.32549 0 0 0 0 0.403922 0 0 0 0.1 0"/>
<feBlend mode="normal" in2="BackgroundImageFix" result="effect1_dropShadow_1723_7173"/>
<feBlend mode="normal" in="SourceGraphic" in2="effect1_dropShadow_1723_7173" result="shape"/>
</filter>
<filter id="filter1_d_1723_7173" x="305" y="89" width="311" height="250" filterUnits="userSpaceOnUse" color-interpolation-filters="sRGB">
<feFlood flood-opacity="0" result="BackgroundImageFix"/>
<feColorMatrix in="SourceAlpha" type="matrix" values="0 0 0 0 0 0 0 0 0 0 0 0 0 0 0 0 0 0 127 0" result="hardAlpha"/>
<feOffset dy="4"/>
<feGaussianBlur stdDeviation="4"/>
<feComposite in2="hardAlpha" operator="out"/>
<feColorMatrix type="matrix" values="0 0 0 0 0.278431 0 0 0 0 0.32549 0 0 0 0 0.403922 0 0 0 0.1 0"/>
<feBlend mode="normal" in2="BackgroundImageFix" result="effect1_dropShadow_1723_7173"/>
<feBlend mode="normal" in="SourceGraphic" in2="effect1_dropShadow_1723_7173" result="shape"/>
</filter>
<linearGradient id="paint0_linear_1723_7173" x1="242" y1="177.5" x2="242" y2="248.011" gradientUnits="userSpaceOnUse">
<stop stop-color="#95DE98"/>
<stop offset="0.786458" stop-color="white"/>
</linearGradient>
<clipPath id="clip0_1723_7173">
<rect width="234" height="57" fill="white" transform="translate(89 177.5)"/>
</clipPath>
</defs>
</svg>
