<svg width="75" height="48" viewBox="0 0 75 48" fill="none" xmlns="http://www.w3.org/2000/svg">
<g id="Group">
<path id="Vector" d="M19.7224 34.9765C19.8919 34.7883 20.1095 34.613 20.2421 34.3874C20.7024 33.604 21.1924 32.8307 21.5646 32.0051C22.8134 29.2327 23.6256 26.3171 24.2512 23.351C24.9101 20.2276 25.3525 17.0774 25.2686 13.8714C25.1729 10.2105 24.3083 6.75143 22.5832 3.51276C22.3228 3.02396 22.0766 2.52684 21.8375 2.02795C21.7442 1.83314 21.6687 1.62467 21.6169 1.41502C21.4998 0.936907 21.6592 0.663701 22.1491 0.635193C22.6778 0.604903 23.2248 0.600151 23.7404 0.7029C24.7941 0.912556 25.692 1.44946 26.4597 2.20315C27.4956 3.21995 28.2163 4.43988 28.7645 5.76967C29.6101 7.81931 30.0977 9.95685 30.2006 12.1662C30.2713 13.6855 30.3118 15.2143 30.2279 16.7312C30.0406 20.1225 29.1487 23.3582 27.8369 26.4816C26.8123 28.9209 25.5237 31.2087 23.8367 33.2589C22.9894 34.2888 22.0332 35.2034 20.9063 35.931C20.1297 36.4328 19.2847 36.7637 18.3749 36.908C16.9181 37.1396 15.7169 36.6847 14.8136 35.5039C14.1036 34.5756 13.6963 33.5042 13.38 32.3953C12.9167 30.7727 12.6646 29.1109 12.5314 27.4313C12.4612 26.547 12.4131 25.6614 12.2662 24.7509C12.2192 24.9071 12.1603 25.0604 12.1276 25.2189C11.5407 28.049 10.8854 30.8618 9.85313 33.5677C9.44521 34.6368 8.91479 35.659 8.45335 36.7078C7.89201 37.983 6.83949 38.2877 5.57528 38.1861C4.33189 38.0863 3.37511 37.4538 2.58126 36.5439C1.62983 35.4535 1.1006 34.1593 0.879396 32.7475C0.769982 32.0479 0.715869 31.328 0.737276 30.6207C0.82231 27.8714 0.965619 25.1233 1.05303 22.374C1.13747 19.7239 1.19753 17.0727 1.23083 14.4214C1.24451 13.3351 1.1339 12.247 1.12677 11.1595C1.1232 10.65 1.19396 10.1315 1.29743 9.63078C1.44252 8.93114 1.66789 8.76009 2.40465 8.70663C3.58264 8.6217 4.64586 8.9543 5.56636 9.68245C6.81392 10.6696 7.50371 11.9899 7.60242 13.5608C7.67318 14.6827 7.61728 15.8159 7.56852 16.942C7.4817 18.9388 7.35504 20.9338 7.2492 22.9299C7.10767 25.5979 6.9608 28.2658 6.83652 30.9343C6.783 32.0782 6.64742 33.2304 6.89717 34.3666C6.9941 34.8067 7.15465 35.2367 7.32769 35.6548C7.43175 35.9072 7.60004 36.1442 7.98893 36.181C8.10667 35.9648 8.25295 35.735 8.36237 35.4885C9.08961 33.8558 9.56711 32.1393 10.0208 30.4182C11.1316 26.2066 11.9974 21.944 12.6123 17.6321C12.7657 16.5571 12.9102 15.4827 12.7461 14.3852C12.6337 13.6326 12.8763 13.4188 13.6523 13.3185C14.7209 13.1801 15.6158 13.5406 16.3538 14.2729C17.6435 15.5516 18.3702 17.113 18.4184 18.9316C18.4618 20.5733 18.4719 22.2202 18.3892 23.8594C18.2257 27.11 18.6271 30.2964 19.3157 33.4602C19.4203 33.9407 19.5125 34.4242 19.613 34.9059C19.616 34.9195 19.6445 34.9272 19.7218 34.9765H19.7224Z" fill="black"/>
<path id="Vector_2" d="M57.8286 38.0818C57.523 38.2279 57.2923 38.3686 57.0419 38.4524C56.1595 38.7488 55.2663 39.0125 54.3851 39.3124C53.254 39.6973 52.1772 40.1926 51.2459 40.9623C50.7661 41.3591 50.3659 41.8193 50.1161 42.3943C49.8313 43.0494 49.9704 43.5192 50.6299 43.8078C51.0937 44.0109 51.6063 44.1404 52.1094 44.2099C53.436 44.394 54.7627 44.2633 56.078 44.0703C59.5305 43.5631 62.8462 42.5873 66.0055 41.0995C67.4095 40.4385 68.7284 39.6396 69.8993 38.6116C70.5147 38.0711 71.0457 37.4617 71.4394 36.7407C72.1125 35.5083 71.7658 34.3365 70.51 33.6962C69.4699 33.1665 68.3472 32.9247 67.1859 32.8873C64.8418 32.8107 62.5727 33.249 60.3392 33.9166C59.5798 34.1435 58.8199 34.3668 58.0564 34.5794C57.5206 34.7285 57.3595 34.6667 57.0604 34.2124C56.6726 33.6232 56.5424 32.9734 56.6697 32.2821C56.7856 31.6537 57.168 31.2208 57.7269 30.9279C58.4756 30.5354 59.295 30.3851 60.1103 30.2194C60.2994 30.1808 60.4896 30.1463 60.7233 30.1012C60.6341 29.8387 60.4207 29.806 60.2655 29.7193C59.2011 29.126 58.2324 28.4174 57.4504 27.4701C56.4205 26.2223 56.0358 24.7535 55.9418 23.1772C55.7628 20.1726 56.6726 17.5617 58.7533 15.3701C58.8336 15.2857 58.9031 15.1919 59.0096 15.0648C58.8829 14.952 58.7795 14.8421 58.6593 14.7572C57.9642 14.2648 57.2655 13.7778 56.5674 13.2896C56.1149 12.9724 55.8098 12.5365 55.5957 12.0388C55.2984 11.3462 55.4994 10.7393 56.1612 10.3686C56.7803 10.0224 57.4689 9.89766 58.167 9.90419C58.6992 9.90894 59.2302 10.001 59.7618 10.0521C59.8897 10.0646 60.0187 10.0687 60.256 10.083C60.0936 9.84361 59.9955 9.68028 59.8795 9.53061C59.3027 8.78702 58.9317 7.93652 58.5654 7.07889C58.2169 6.26462 58.7515 5.48361 59.5995 5.41709C60.25 5.36601 60.8601 5.49608 61.4369 5.79423C62.0993 6.13633 62.6345 6.63345 63.1227 7.1858C63.5521 7.67163 63.9766 8.16162 64.5011 8.76207C64.554 8.42235 64.5849 8.21863 64.6171 8.01551C64.7015 7.4887 64.7431 6.95001 64.8799 6.43686C65.1606 5.38442 66.1554 5.14388 66.9332 5.91836C67.5552 6.53783 67.9019 7.31527 68.1338 8.14142C68.3205 8.80721 68.4567 9.48785 68.6154 10.1614C68.6594 10.349 68.7058 10.5361 68.7736 10.8188C68.9871 10.6436 69.125 10.5094 69.282 10.4049C69.6602 10.1536 70.0265 9.86856 70.4362 9.68325C71.1581 9.35719 71.6481 9.70998 71.6344 10.5017C71.6178 11.4431 71.4091 12.3458 71.0624 13.2177C70.8721 13.6958 70.6765 14.1721 70.4683 14.6425C70.3173 14.9834 70.3619 15.2899 70.5528 15.5999C70.8572 16.0959 71.2782 16.4296 71.8414 16.5835C72.0703 16.6464 72.3052 16.6975 72.5246 16.7848C73.4166 17.1418 73.9125 17.8182 74.0237 18.759C74.1355 19.701 73.4844 20.1773 72.609 19.8126C72.1339 19.6149 71.6659 19.3981 71.1908 19.2003C71.057 19.1445 70.9072 19.1267 70.6277 19.0572C70.7597 19.366 70.8483 19.5525 70.9203 19.7455C71.1201 20.2812 71.3799 20.8057 71.4953 21.3592C71.8378 23.0044 70.8923 24.4227 69.2648 24.7963C69.0965 24.8349 68.9294 24.88 68.729 24.9299C68.7849 25.588 68.968 26.1647 69.2006 26.7307C70.0438 28.7863 71.0416 30.7622 72.2416 32.6349C73.0853 33.9522 73.3726 35.402 73.253 36.9486C73.1882 37.7925 72.8624 38.5308 72.3076 39.1461C71.6992 39.8208 71.0814 40.502 70.3845 41.0805C66.9599 43.926 63.1257 46.0208 58.8223 47.2229C57.6556 47.5483 56.4687 47.7871 55.255 47.8198C53.5639 47.8649 51.9892 47.5246 50.6763 46.3552C49.8729 45.6395 49.1183 44.8893 48.6099 43.926C47.9195 42.617 48.0783 41.6299 49.173 40.6214C49.4626 40.3547 49.7825 40.1088 50.1215 39.9105C52.211 38.6864 54.4867 38.0646 56.8903 37.8852C57.1715 37.8644 57.4772 37.8264 57.8257 38.0818H57.8286ZM70.0301 16.3037C69.5877 15.5037 69.0626 14.8753 68.4115 14.3497C67.3976 13.5319 66.2315 13.1351 64.9364 13.2082C62.9693 13.3193 61.3031 14.111 59.9675 15.5631C57.9749 17.7292 57.2268 21.067 58.8794 23.9767C59.4704 25.0172 60.162 25.9758 61.0326 26.7966C63.5075 29.129 66.5086 30.3655 69.8083 30.9713C69.8897 30.9862 69.9807 30.947 70.133 30.922C69.9248 30.4789 69.7411 30.0899 69.5585 29.7003C68.93 28.3563 68.2604 27.0223 68.0166 25.5416C67.934 25.0404 67.7253 24.7387 67.2799 24.4987C66.2803 23.9606 65.8735 23.0929 66.0442 21.968C66.0799 21.734 66.1292 21.5 66.2006 21.2743C66.4147 20.5954 66.6382 19.9195 66.8666 19.2448C67.2995 17.9667 68.1914 17.115 69.3944 16.5585C69.5716 16.4766 69.7577 16.4124 70.0301 16.3037ZM73.1656 19.0833C73.2293 18.4549 72.9599 18.0849 72.5686 17.7862C72.0138 17.3627 71.365 17.194 70.68 17.1857C70.2358 17.1804 69.7738 17.1162 69.3391 17.3823C69.5175 17.8741 69.885 18.0707 70.3488 18.1978C71.1278 18.411 71.8943 18.6699 72.6661 18.9117C72.8136 18.958 72.9581 19.0114 73.1656 19.0833Z" fill="black"/>
<path id="Vector_3" d="M43.7018 29.677C43.7719 29.4608 43.8457 29.2458 43.9123 29.0284C44.8607 25.9258 45.8454 22.8344 47.1364 19.8535C47.6074 18.766 48.1449 17.7053 48.6908 16.6522C48.9352 16.1807 49.27 15.756 49.5703 15.3141C50.2404 14.3282 51.221 14.0259 52.3258 14.2249C52.9752 14.3419 53.6025 14.6335 54.2097 14.912C54.7014 15.1377 54.9387 15.579 54.8543 16.1349C54.6735 17.3269 54.4874 18.5184 54.2876 19.7074C53.9296 21.833 53.5187 23.9504 53.2059 26.0826C52.9169 28.0538 53.0323 30.031 53.3849 31.9904C53.4509 32.3574 53.5954 32.7102 53.6989 33.0707C53.8648 33.6492 53.7078 33.8897 53.1066 33.9461C52.1195 34.0382 51.2704 33.6789 50.5324 33.0671C49.4668 32.184 48.852 31.0448 48.6742 29.6616C48.4785 28.1358 48.6296 26.6165 48.7366 25.099C48.912 22.6111 49.2605 20.1433 49.7076 17.6898C49.7178 17.6352 49.7023 17.5764 49.6238 17.4921C49.534 17.7177 49.4288 17.9393 49.3562 18.1703C48.5653 20.6785 47.7905 23.1919 46.9889 25.6971C46.3319 27.7497 45.6575 29.797 44.9624 31.8365C44.7787 32.3758 44.479 32.8747 44.253 33.4009C44.1281 33.6914 43.9129 33.8 43.6215 33.8666C42.7277 34.0703 41.4754 33.5631 41.0717 32.7452C40.8124 32.2196 40.3825 31.7777 40.1244 31.2521C39.6778 30.3416 39.4578 29.3515 39.2931 28.3532C38.9761 26.4342 38.8531 24.5016 38.9036 22.5576C38.9149 22.127 38.9577 21.7024 38.62 21.327C38.4297 21.1156 38.5379 20.8869 38.8007 20.7503C38.8703 20.7141 38.947 20.6897 39.0231 20.6678C40.1517 20.3441 41.2893 20.2894 42.4221 20.6197C43.3141 20.8798 43.559 21.2308 43.54 22.1781C43.5061 23.8399 43.4377 25.5017 43.4199 27.1635C43.411 27.9903 43.4823 28.8176 43.5174 29.6444C43.5793 29.6556 43.6411 29.6669 43.7029 29.6776L43.7018 29.677Z" fill="black"/>
<path id="Vector_4" d="M35.7334 20.4633C35.7114 22.2825 35.6383 24.1023 35.6799 25.9197C35.7328 28.2473 36.2525 30.4686 37.5239 32.4624C37.7052 32.7469 37.6904 32.9518 37.4638 33.1947C37.022 33.6675 36.5082 33.9418 35.8446 33.9359C34.7754 33.9264 33.8811 33.5695 33.1747 32.7397C32.2863 31.6956 31.8516 30.4573 31.5602 29.1518C31.2349 27.6949 31.1856 26.2119 31.1582 24.7271C31.1184 22.5658 31.2938 20.4182 31.5418 18.2741C31.587 17.8809 31.7523 17.6719 32.187 17.6297C32.6157 17.5881 33.0593 17.5947 33.4845 17.6594C34.0976 17.7526 34.6529 18.0193 35.1608 18.3828C35.6121 18.7059 35.8636 19.1193 35.8226 19.6924C35.8042 19.9484 35.8196 20.2067 35.8196 20.4639C35.7911 20.4639 35.7625 20.4639 35.7346 20.4633H35.7334Z" fill="black"/>
<path id="Vector_5" d="M34.0262 11.1097C35.743 10.9309 37.2635 12.5013 37.6535 13.6321C38.0383 14.7487 37.493 15.5624 36.3031 15.6538C35.4159 15.7221 34.5739 15.5107 33.7491 15.2131C32.9797 14.9358 32.2887 14.5289 31.6393 14.0265C30.657 13.2663 31.0263 11.7874 32.1115 11.4756C32.7335 11.2968 33.387 11.2279 34.0256 11.1091L34.0262 11.1097Z" fill="black"/>
<path id="Vector_6" d="M73.1666 19.083C72.9591 19.0111 72.814 18.9576 72.6671 18.9113C71.8959 18.6702 71.1294 18.4112 70.3498 18.1974C69.886 18.0703 69.5185 17.8731 69.3401 17.3819C69.7742 17.1159 70.2368 17.18 70.681 17.1854C71.3666 17.1937 72.0148 17.3623 72.5696 17.7858C72.9609 18.0846 73.2302 18.4546 73.1666 19.083Z" fill="black"/>
<path id="Vector_7" d="M65.5821 15.4248C66.1261 15.4219 66.5109 15.8127 66.5014 16.3603C66.4919 16.9322 66.006 17.4163 65.4399 17.4198C64.9184 17.4228 64.5046 16.9999 64.5141 16.4731C64.5242 15.9023 65.007 15.4284 65.5821 15.4248Z" fill="black"/>
</g>
</svg>
